<svg id="Capa_1" data-name="Capa 1" xmlns="http://www.w3.org/2000/svg" viewBox="0 0 50 50"><defs><style>.cls-1{fill:#8cc541;}</style></defs><path class="cls-1" d="M41.64,33.456l-1.46744,1.46414-6.88575.306a.9176.9176,0,0,0,.08148,1.83339l4.87738-.21674L36.39589,38.6885l-3.01564.13471a.91766.91766,0,0,0,.08194,1.83348l2.36835-.10581-.10589,2.36092a.91749.91749,0,0,0,.87559.95781l.04184.00091a.91765.91765,0,0,0,.916-.8765l.13489-3.007,1.85412-1.85-.21738,4.86847a.91771.91771,0,0,0,.87577.95762l.04166.00092a.91756.91756,0,0,0,.916-.87668l.30666-6.86869,1.46662-1.46331A.9177.9177,0,0,0,41.64,33.456Z"/><path class="cls-1" d="M48.24444,35.9432a10.28772,10.28772,0,0,0-17.30769-5.02273,10.42722,10.42722,0,0,0-.77584.86632c-1.86037-.68436-5.70662-1.84449-6.12744-1.97351V27.24819a9.18723,9.18723,0,0,0,4.114-5.87619h.73491a3.28823,3.28823,0,0,0,3.28716-3.28193v-.95248a3.2585,3.2585,0,0,0-.26932-1.2997l.00147-.02909V14.27254a12.73811,12.73811,0,0,0-25.47618,0V15.847a3.25885,3.25885,0,0,0-.26528,1.29071v.95248a3.25878,3.25878,0,0,0,.26528,1.29071v3.05638a2.55218,2.55218,0,0,0,2.55105,2.54747h2.85184a9.24688,9.24688,0,0,0,2.46792,2.26356v2.56528c-.48927.15012-4.5809,1.36714-5.46337,1.69657-3.72751,1.39174-7.248,3.61639-7.32326,8.25115l-.00028.015v5.24763a.91759.91759,0,0,0,.91761.91761H31.48291a10.30792,10.30792,0,0,0,10.05,1.94937.9176.9176,0,0,0-.59112-1.7374,8.4176,8.4176,0,1,1,5.25892-5.2391.91761.91761,0,1,0,1.73648.59387,10.28574,10.28574,0,0,0,.30722-5.565ZM25.0634,32.029l.17673.05111L23.695,35.08569l-1.13811-.76575-.03184-.02138-1.71694-1.15518,2.45112-1.64867C23.82747,31.67245,24.43116,31.8468,25.0634,32.029Zm-4.1388,3.40461-.79088,2.37918H18.19581l-.79125-2.38019,1.75952-1.18344Zm-4.79314-5.437V28.13194a9.19545,9.19545,0,0,0,6.06679-.00009v1.86468l-3.0339,2.04067ZM26.50817,15.15931a13.60069,13.60069,0,0,1-9.5259-2.70833.91757.91757,0,0,0-.59268-.21719.92786.92786,0,0,0-.09424.00486.91738.91738,0,0,0-.62911.34814,5.55083,5.55083,0,0,1-3.84461,2.47957v-.646a7.34334,7.34334,0,0,1,14.68664,0v.73895Zm3.82607,2.93085a1.451,1.451,0,0,1-1.45193,1.44671h-.53956l.00065-.05038V15.69107h.539a1.45092,1.45092,0,0,1,1.45193,1.4467v.95239ZM19.16481,3.39472A10.90258,10.90258,0,0,1,30.06392,14.07607a3.273,3.273,0,0,0-1.18161-.22013h-.5569a9.17918,9.17918,0,0,0-18.3212-.00009h-.557a3.275,3.275,0,0,0-1.18417.22114A10.90393,10.90393,0,0,1,19.16481,3.39472ZM7.99538,17.13777a1.451,1.451,0,0,1,1.45193-1.4467h.539v3.79542l.00064.05037H9.44732a1.45092,1.45092,0,0,1-1.45194-1.4467Zm.98111,6.01173a.71482.71482,0,0,1-.71583-.71225V21.14993a3.27406,3.27406,0,0,0,1.18665.22216h.735a9.07449,9.07449,0,0,0,.57076,1.77741Zm3.83323,0a7.26332,7.26332,0,0,1-.98827-3.663V16.91507a6.89394,6.89394,0,0,0,4.704-2.49746,15.53375,15.53375,0,0,0,8.94294,2.60877q.51711,0,1.03974-.02918v2.48929a7.35064,7.35064,0,0,1-.04918.83585c-.00239.01679-.005.03359-.00643.05065a7.34142,7.34142,0,0,1-12.13173,4.61173h4.84407a.91761.91761,0,1,0,0-1.83522Zm.44155,8.88422c.63756-.18371,1.2463-.35943,1.81916-.539l2.44984,1.6484-2.88818,1.94267-1.54471-3.00472Zm1.9301,12.07254H9.517V39.906a.91761.91761,0,0,0-1.83522,0v4.20027H3.34465V39.78385a5.88616,5.88616,0,0,1,3.16282-5.14651,20.68146,20.68146,0,0,1,4.78947-2.02507l2.17483,4.23046A.91758.91758,0,0,0,14.8,37.18445l1.02415-.68876.75326,2.26594Zm1.8968,0L18.2427,39.648h1.844l1.1627,4.4583Zm12.73313,0H23.146L21.7522,38.76182l.7529-2.26485,1.02185.68757a.91764.91764,0,0,0,1.32834-.34172l2.17492-4.23073c.70436.21912,1.41578.4577,2.10509.72371a10.26986,10.26986,0,0,0,.676,10.77046Z"/><path class="cls-1" d="M44.178,44.13884a.91763.91763,0,1,0,1.29769,1.29777l.00257-.00257a.91764.91764,0,0,0-1.30026-1.2952Z"/></svg>