<svg id="Capa_1" data-name="Capa 1" xmlns="http://www.w3.org/2000/svg" viewBox="0 0 50 50"><defs><style>.cls-1{fill:#8cc541;}</style></defs><path class="cls-1" d="M45.12165,20.34248h0a6.61033,6.61033,0,0,0-4.707-1.94916H36.026L34.90589,16.601a2.76525,2.76525,0,0,0-2.35846-1.30774h-.69769l-.00006-1.11407a2.39145,2.39145,0,0,0,1.38549-1.386H48.8277a.844.844,0,1,0,0-1.68792H39.74457L44.8581,9.88746a.84387.84387,0,0,0,.64905-.82025l-.0232-.19647a.84339.84339,0,0,0-.82-.64862l-.1969.02325L33.16743,10.93544a2.38388,2.38388,0,0,0-4.32441,0L17.54365,8.24531l-.1969-.02337a.84384.84384,0,0,0-.81989.6488l-.02319.19653a.84371.84371,0,0,0,.64917.82019l5.1134,1.21778H13.18317a.844.844,0,1,0,0,1.68792H28.7757a2.39147,2.39147,0,0,0,1.3855,1.386v1.11407H29.359a2.76922,2.76922,0,0,0-2.35937,1.30768L25.88,18.39332H7.90711L5.24549,12.73561a1.625,1.625,0,0,0-1.46515-.92969H1.94684A1.62063,1.62063,0,0,0,.32819,13.42555V21.949A2.78356,2.78356,0,0,0,3.109,24.72975H4.84186a.844.844,0,1,0,0-1.688H3.109A1.096,1.096,0,0,1,2.01618,21.949V13.49385h1.72l2.87152,6.103a.84358.84358,0,0,0,.76349.48487H26.34821a.84378.84378,0,0,0,.71588-.39716l1.36719-2.18841a1.08751,1.08751,0,0,1,.92767-.51453h3.18848a1.08479,1.08479,0,0,1,.92664.5144l1.36822,2.18909a.84455.84455,0,0,0,.71588.39661h1.86719v1.88482a.84424.84424,0,0,0,1.68848,0V20.08174h1.30078a4.93206,4.93206,0,0,1,3.51312,1.45459l2.60114,2.60016a5.00572,5.00572,0,0,1,1.42285,3.0708H40.20759a1.0962,1.0962,0,0,1-1.09375-1.09278v-.792a.84424.84424,0,0,0-1.68848,0v.792a2.78486,2.78486,0,0,0,2.78223,2.78125h7.77588v.02735a6.91221,6.91221,0,0,1-6.9043,6.90429h-.792a.84424.84424,0,1,0,0,1.68848h.792a8.60955,8.60955,0,0,0,1.57715-.15155V40.0901h-12.938V37.06593a10.49089,10.49089,0,0,0,3.03027.45h4.18262a.84424.84424,0,0,0,0-1.68848H32.7486a8.85125,8.85125,0,0,1-8.84131-8.84082V25.82447a2.78513,2.78513,0,0,0-2.78222-2.78271H8.19782a.84448.84448,0,0,0,0,1.689H21.12507a1.096,1.096,0,0,1,1.09375,1.09375v1.16211A10.53764,10.53764,0,0,0,28.03034,36.392V40.0901h-3.999a.84424.84424,0,1,0,0,1.68848H46.93024a2.74479,2.74479,0,0,0,2.7417-2.74219V38.02858a.84424.84424,0,1,0-1.68847,0v1.00781a1.05673,1.05673,0,0,1-1.05323,1.05371H44.34437L44.3443,36.864a8.60093,8.60093,0,0,0,5.32764-7.94085V27.64967a6.61812,6.61812,0,0,0-1.94916-4.707ZM31.00544,11.24336a.70584.70584,0,1,1-.70557.70563A.70772.70772,0,0,1,31.00544,11.24336Z"/><path class="cls-1" d="M31.00544,21.74879a.844.844,0,0,0-.84424.84424V24.0735H28.68073a.84424.84424,0,1,0,0,1.68847h1.48041l.00006,1.48047a.84424.84424,0,0,0,1.68848,0V25.76191l1.48046.00006a.84424.84424,0,1,0,0-1.68847H31.84968V22.593A.84431.84431,0,0,0,31.00544,21.74879Z"/></svg>