<svg id="Capa_1" data-name="Capa 1" xmlns="http://www.w3.org/2000/svg" viewBox="0 0 50 50"><defs><style>.cls-1{fill:#8cc541;}</style></defs><path class="cls-1" d="M46.48,9.29757a.96272.96272,0,0,0-1.02821-.21723L33.85723,13.564,32.31078,1.19277a.963.963,0,0,0-.95551-.84352H25.57775a.963.963,0,0,0-.9555.84352l-1.7,13.60028H20.1854V9.97845a.96292.96292,0,0,0-1.92584,0v4.8146H13.83013V9.97845a.963.963,0,0,0-1.19652-.93422l-1.69224.4231V4.20093A.963.963,0,0,0,9.97845,3.238H4.20093a.963.963,0,0,0-.96292.96292v7.19224L1.07857,11.933a.96306.96306,0,0,0-.72932.93422V30.19977a.963.963,0,0,0,.96292.96292H6.41565v9.39492a7.64813,7.64813,0,0,0-2.46874.75387,5.517,5.517,0,0,1-2.63474.63591.96292.96292,0,0,0,0,1.92584,7.38239,7.38239,0,0,0,3.43166-.80847,5.517,5.517,0,0,1,2.63474-.63591,4.68535,4.68535,0,0,1,2.45814.62051,6.51677,6.51677,0,0,0,3.31938.82387,7.38234,7.38234,0,0,0,3.43165-.80847,5.517,5.517,0,0,1,2.63474-.63591,4.68532,4.68532,0,0,1,2.45814.62051A6.51677,6.51677,0,0,0,25,43.87323a6.51677,6.51677,0,0,0,3.31938-.82387,5.1792,5.1792,0,0,1,4.91628,0,6.51677,6.51677,0,0,0,3.31938.82387,7.38231,7.38231,0,0,0,3.43165-.80847,5.77616,5.77616,0,0,1,5.26948,0,7.38239,7.38239,0,0,0,3.43166.80847.96292.96292,0,1,0,0-1.92584,5.517,5.517,0,0,1-2.63474-.63591,7.68729,7.68729,0,0,0-6.86331,0,5.517,5.517,0,0,1-2.63474.63591,4.48794,4.48794,0,0,1-1.92584-.36668v-10.418h5.39235a.963.963,0,0,0,.96292-.96292V24.42225a.963.963,0,0,0-.96292-.96292H36.98912l10.73579-8.58867V33.08853a.96292.96292,0,1,0,1.92584,0V12.86721a.9791.9791,0,0,0-.282-.68088ZM26.42782,2.27509H30.5052l.48156,3.85168h-5.0404Zm-.72219,5.77752h5.52186l.48156,3.85168H25.22417Zm-.72219,5.77752h6.96643c.022.17544.46606,3.72843.48146,3.85168H24.502Zm-.72219,5.77752H32.672l.48136,3.85168H23.77979ZM13.83013,16.71889h8.85135l-.84255,6.74044h-8.0088ZM5.16385,5.16385H9.01553V9.94879l-3.85168.96292Zm7.02932,36.70862a4.99681,4.99681,0,0,1-1.49523-.54559,6.5557,6.5557,0,0,0-2.35645-.76831V31.16269h3.85168Zm20.51019-1.12228a7.62594,7.62594,0,0,0-3.85168,0v-9.5875h3.85168Zm6.35527-15.365v3.85168H25a.96292.96292,0,0,0,0,1.92584h1.92584v10.418A4.488,4.488,0,0,1,25,41.94739a4.68542,4.68542,0,0,1-2.45814-.6205,6.51665,6.51665,0,0,0-3.31938-.82388,7.38231,7.38231,0,0,0-3.43165.80847,6.144,6.144,0,0,1-1.67182.56388V31.16269h2.21471a.96292.96292,0,0,0,0-1.92584H2.27509V25.38517h4.8146a.96292.96292,0,0,0,0-1.92584H2.27509V19.60765h4.8146a.96292.96292,0,0,0,0-1.92584H2.27509V13.61906l9.6292-2.4073V24.42225a.963.963,0,0,0,.96292.96292Zm-4.07257-2.78968-.88252-7.06186,11.458-4.43087,1.68463,1.68472Z"/><path class="cls-1" d="M48.68783,47.72491a5.517,5.517,0,0,1-2.63474-.63592,7.68737,7.68737,0,0,0-6.86331,0,5.517,5.517,0,0,1-2.63474.63592,4.68539,4.68539,0,0,1-2.45815-.62051,7.09882,7.09882,0,0,0-6.63875,0A4.68532,4.68532,0,0,1,25,47.72491a4.68532,4.68532,0,0,1-2.45814-.62051,6.51677,6.51677,0,0,0-3.31938-.82387,7.38245,7.38245,0,0,0-3.43165.80846,5.517,5.517,0,0,1-2.63474.63592,4.68539,4.68539,0,0,1-2.45815-.62051,6.51669,6.51669,0,0,0-3.31937-.82387,7.38253,7.38253,0,0,0-3.43166.80846,5.517,5.517,0,0,1-2.63474.63592.96292.96292,0,0,0,0,1.92584,7.38239,7.38239,0,0,0,3.43166-.80847,5.517,5.517,0,0,1,2.63474-.63591,4.68535,4.68535,0,0,1,2.45814.6205,6.51665,6.51665,0,0,0,3.31938.82388,7.38234,7.38234,0,0,0,3.43165-.80847,5.517,5.517,0,0,1,2.63474-.63591,4.68533,4.68533,0,0,1,2.45814.6205A6.51665,6.51665,0,0,0,25,49.65075a6.51665,6.51665,0,0,0,3.31938-.82388,5.17927,5.17927,0,0,1,4.91628,0,6.51665,6.51665,0,0,0,3.31938.82388,7.38231,7.38231,0,0,0,3.43165-.80847,5.77616,5.77616,0,0,1,5.26948,0,7.38239,7.38239,0,0,0,3.43166.80847.96292.96292,0,0,0,0-1.92584Z"/><circle class="cls-1" cx="20.66686" cy="30.19977" r="0.96292"/></svg>