<?xml version="1.0" encoding="UTF-8"?>
<svg width="117px" height="115px" viewBox="0 0 117 115" version="1.1" xmlns="http://www.w3.org/2000/svg" xmlns:xlink="http://www.w3.org/1999/xlink">
    <!-- Generator: Sketch 52.1 (67048) - http://www.bohemiancoding.com/sketch -->
    <title>Group</title>
    <desc>Created with Sketch.</desc>
    <g id="Page-2" stroke="none" stroke-width="1" fill="none" fill-rule="evenodd">
        <g id="Icons-KEA-01" transform="translate(2.000000, 2.000000)" stroke="#FFFFFF" stroke-width="3">
            <g id="Group">
                <path d="M98.3,1.4 C97.7,0.9 96.6,0.4 95.8,0.4 L29.6,0.4 C28.8,0.4 28.2,1 28.2,1.8 L28.2,110 C28.2,110.8 28.8,111.4 29.6,111.4 L111.5,111.4 C112.3,111.4 112.9,110.8 112.9,110 L112.9,16.6 C112.9,15.8 112.4,14.7 111.9,14.2 L98.3,1.4 Z" id="Path"></path>
                <polyline id="Path" points="97.3 0.5 97.3 15.2 113 15.2"></polyline>
                <path d="M28.3,4.7 L1.4,12.6 C0.7,12.8 0.2,13.6 0.5,14.3 L28.3,95" id="Path"></path>
                <polyline id="Path" points="92.8 67.5 105.2 67.5 105.2 48.2 101.3 48.2 90.3 39 59 39 59 46 71.8 46 92.8 67.5 72.5 88.7 47.3 63.9 45 66 39.8 60.2 35.3 59.5 35.3 43.2 57.5 43.2"></polyline>
                <polyline id="Path" points="45 66 41.8 69.5 65 93 70.2 87.7"></polyline>
                <path d="M47.1,74.9 L52.6,69.1" id="Path"></path>
                <path d="M53.3,80.6 L58.8,74.9" id="Path"></path>
                <path d="M58.8,86.4 L64.3,80.6" id="Path"></path>
                <path d="M70.2,70.7 L80.3,80.6" id="Path"></path>
                <path d="M76.4,65.8 L86.4,75.7" id="Path"></path>
                <path d="M84.3,93 L106.8,93" id="Path"></path>
                <path d="M84.3,101 L106.8,101" id="Path"></path>
            </g>
        </g>
    </g>
</svg>