<?xml version="1.0" encoding="UTF-8"?>
<svg width="98px" height="95px" viewBox="0 0 98 95" version="1.1" xmlns="http://www.w3.org/2000/svg" xmlns:xlink="http://www.w3.org/1999/xlink">
    <!-- Generator: Sketch 52.1 (67048) - http://www.bohemiancoding.com/sketch -->
    <title>Path</title>
    <desc>Created with Sketch.</desc>
    <g id="Page-2" stroke="none" stroke-width="1" fill="none" fill-rule="evenodd">
        <g id="Icons-KEA-01" transform="translate(-435.000000, -384.000000)" stroke="#FFFFFF" stroke-width="3">
            <path d="M452,433.8 C449.3,431.2 446.7,428.6 444,426 C442.4,424.4 440.8,422.9 439.2,421.3 C438.5,420.6 437.5,419.8 437,418.9 C435.9,416.8 438.4,415.7 440.1,415.7 C443.2,415.8 446.4,417.4 449.2,418.6 C451.7,419.7 454.1,420.8 456.6,422 C457.5,422.5 458.3,421.9 459.2,421.5 C463.4,419.9 467.6,418.2 471.8,416.6 C462.6,408.7 453.5,400.7 444.1,393 C439,388.7 440.5,388.9 442.3,387.1 C447.4,385.4 449,386.4 453,387.9 C457.4,389.5 461.7,391.7 465.9,393.7 C475.3,398.1 484.6,402.6 493.9,407.2 C494.4,407.5 495.4,408.2 496,408.2 C496.7,408.2 497.9,407.5 498.5,407.3 C503,405.7 507.5,404.1 511.9,402.4 C513.4,401.9 514.8,401.3 516.3,400.8 C517.3,400.5 518.3,400.5 519.3,400.6 C524.4,400.7 532.7,403.1 530.5,409.8 C529.7,412.3 528,414.5 526.2,416.4 C525.5,417.2 524.9,417.9 523.9,418.2 C519.9,419.6 515.9,421 511.9,422.5 C509.8,423.2 507.7,424 505.6,424.7 C504.9,424.9 503.5,425.1 503,425.6 C502.7,425.9 502.4,426.8 502.3,427.2 C501.7,428.5 501.1,429.9 500.4,431.2 C496.4,439.9 492.3,448.6 488.3,457.3 C486,462.3 484,468.2 480.1,472.3 C479.1,473.4 477.9,474.3 476.6,475.1 C475.9,475.5 475.2,475.8 474.5,476.1 C474,476.3 472.7,476.8 472.3,476.6 C471.1,476.1 471.6,473.9 471.8,472.9 C472.4,469.6 473,466.3 473.6,463 C475.2,454.2 476.7,445.4 478.3,436.6 C478.4,436 478.5,435.4 478.6,434.8 C474.4,436.2 470.2,437.7 466,439.1 C464.9,439.5 463.8,439.5 463.3,440.6 C462.2,442.8 461.2,445 460.1,447.3 C459.3,449.1 458.3,450.9 457.5,452.7 C456.6,454.8 455,457.2 452.6,457.6 C448.5,458.3 450.1,450.7 450.3,448.6 C451,443.7 451.5,438.7 452,433.8 Z" id="Path"></path>
        </g>
    </g>
</svg>