<svg id="Capa_1" data-name="Capa 1" xmlns="http://www.w3.org/2000/svg" viewBox="0 0 63.89801 50"><defs><style>.cls-1{fill:#8cc541;}</style></defs><path class="cls-1" d="M60.96132,25.24587h-1.0648V22.18026a.936.936,0,0,0-1.872,0v3.06561h-7.618l-1.91844-2.39805a6.90459,6.90459,0,0,0-5.41812-2.604H20.37452L9.24851,7.26354A2.9339,2.9339,0,0,0,7.01869,6.23792H.936A.93594.93594,0,0,0,.07575,7.5426L5.51908,20.24372H2.67087a2.67095,2.67095,0,0,0-.814,5.21482L22.07069,31.927a2.93548,2.93548,0,0,0,1.875,5.19522h7.06736v1.28308a2.93683,2.93683,0,1,0,1.872,0V37.12219h7.06736a2.94147,2.94147,0,0,0,2.78306-2.00081h8.28605v3.28389a2.93682,2.93682,0,1,0,1.872,0V35.1074a6.8856,6.8856,0,0,0,4.4851-2.0184l.64572-.64573v1.742a.936.936,0,0,0,1.872,0V31.11951h1.0648a2.93682,2.93682,0,0,0,.00013-5.87364ZM31.94907,42.253a1.06481,1.06481,0,1,1,1.0648-1.0648A1.066,1.066,0,0,1,31.94907,42.253ZM47.02629,24.01733l1.99432,2.4929v.67206a1.066,1.066,0,0,1-1.0648,1.0648H46.53332L43.4767,22.13371a5.03753,5.03753,0,0,1,3.54958,1.88362ZM26.88253,22.11586h7.13175v5.569q-.51255-.17055-1.01188-.39163l-5.48751-2.43886a1.06571,1.06571,0,0,1-.63236-.97307Zm9.00377,0h5.4885l3.06561,6.13135H37.49785a11.123,11.123,0,0,1-1.61168-.11756V22.11586ZM7.01869,8.10994a1.06369,1.06369,0,0,1,.80846.37178l1.50673,1.75783H3.26817L2.3555,8.10994ZM51.95755,42.253a1.06481,1.06481,0,1,1,1.06481-1.0648A1.066,1.066,0,0,1,51.95755,42.253ZM56.055,31.76535a5.033,5.033,0,0,1-3.58254,1.484h-9.737a2.94138,2.94138,0,0,0-2.78307-2.00081.936.936,0,0,0,0,1.872,1.06586,1.06586,0,0,1,1.06468,1.063l-.00012.00175.00012.00175a1.066,1.066,0,0,1-1.06468,1.063H23.94571a1.0648,1.0648,0,0,1,0-2.1296h12.005a.936.936,0,0,0,0-1.872h-9.858L2.42739,23.6755a.79882.79882,0,0,1,.24349-1.55964h6.268a.936.936,0,0,0,0-1.872H7.55572l-3.4852-8.13216h6.86793L17.909,20.24385H12.94088a.936.936,0,1,0,0,1.872H25.01052V23.8813A2.93935,2.93935,0,0,0,26.75461,26.565l5.4875,2.43886A12.86083,12.86083,0,0,0,37.498,30.11923H47.95581a2.94008,2.94008,0,0,0,2.93682-2.93682V27.118h7.13175v2.678Zm4.9063-2.51773h-1.0648V27.118h1.0648a1.06481,1.06481,0,1,1,0,2.12961Z"/></svg>