<svg id="Capa_1" data-name="Capa 1" xmlns="http://www.w3.org/2000/svg" viewBox="0 0 50 50"><defs><style>.cls-1{fill:#8cc541;}.cls-2{fill:#fff;}</style></defs><path class="cls-1" d="M36.54353,13.46A16.31811,16.31811,0,0,0,25.0135,8.66l-.02-.16v.16a16.36707,16.36707,0,0,0-16.34,16.32v.03a16.28208,16.28208,0,0,0,4.8,11.54,16.32708,16.32708,0,0,0,27.88-11.53v-.03A16.24982,16.24982,0,0,0,36.54353,13.46Zm-11.55,25.71a14.199,14.199,0,0,1-14.16-14.16V25a14.19046,14.19046,0,0,1,14.15-14.16h.02a14.165,14.165,0,0,1-.00995,28.33Z"/><path class="cls-2" d="M24.99354,8.5v.16h.02Z"/><path class="cls-1" d="M8.89351,14.45c-.36.63-.71,1.25-1.08,1.88-.64-.36005-1.25-.71-1.89-1.08.37-.63.71-1.24,1.08-1.89C7.64351,13.73,8.25349,14.08,8.89351,14.45Z"/><path class="cls-1" d="M16.3235,7.82c-.62.36-1.24.72-1.88,1.08-.37-.63-.72-1.25-1.09-1.88.64-.37,1.25-.72,1.89-1.09C15.60353,6.57,15.9535,7.18,16.3235,7.82Z"/><path class="cls-1" d="M44.06355,34.76c-.36005.62-.71,1.23-1.08,1.88-.63-.36-1.24-.71-1.89-1.08.37-.64.72-1.25,1.08-1.89C42.80354,34.03,43.41353,34.38,44.06355,34.76Z"/><path class="cls-1" d="M8.89351,35.56c-.63.36-1.24.72-1.89,1.08-.37-.65-.71-1.25-1.08-1.88.63-.37,1.24-.72,1.89-1.09C8.17354,34.29,8.52351,34.91,8.89351,35.56Z"/><path class="cls-1" d="M36.64351,7.02c-.37.63-.72,1.24-1.09,1.88995-.63-.36-1.25-.72-1.89-1.09.37-.64.72-1.25,1.08-1.89C35.3835,6.3,36.00349,6.66,36.64351,7.02Z"/><path class="cls-1" d="M44.06355,15.25c-.64.37-1.26.73-1.89,1.09-.35-.62006-.7-1.24-1.08-1.89.62-.36,1.23-.71,1.88-1.08C43.34352,14,43.7035,14.61,44.06355,15.25Z"/><path class="cls-1" d="M36.6335,42.99c-.62.36-1.23.71-1.88,1.09-.36-.62-.72-1.24-1.09-1.89.62-.36,1.23-.72,1.88-1.09C35.91353,41.74,36.2635,42.35,36.6335,42.99Z"/><rect class="cls-1" x="23.93355" y="3.63" width="2.13995" height="2.12"/><rect class="cls-1" x="3.6335" y="23.92999" width="2.12" height="2.14001"/><rect class="cls-1" x="44.23353" y="23.94" width="2.13" height="2.12"/><path class="cls-1" d="M16.3235,42.19c-.36.63-.72,1.25-1.08,1.88-.64-.36-1.25-.71-1.89-1.08.36-.63.72-1.25,1.09-1.88C15.08351,41.47,15.7035,41.83,16.3235,42.19Z"/><rect class="cls-1" x="23.91353" y="44.25" width="2.14001" height="2.12"/><path class="cls-1" d="M32.97352,17.04a11.22724,11.22724,0,0,0-7.94-3.32h-.04a11.2948,11.2948,0,0,0-11.28,11.26V25a11.30325,11.30325,0,0,0,11.26,11.29h.02a11.29252,11.29252,0,0,0,11.28-11.28V25A11.23283,11.23283,0,0,0,32.97352,17.04Zm-5.39,16.68a8.926,8.926,0,0,1-2.59.38,9.11218,9.11218,0,0,1-7.54-4,8.99779,8.99779,0,0,1-1.57-5.08,9.13424,9.13424,0,0,1,9.09-9.12,8.323,8.323,0,0,1,2.6.41l.27.09-.21.2a12.19423,12.19423,0,0,0-2.75995,3.81,11.06353,11.06353,0,0,0-.96,4.59,11.21259,11.21259,0,0,0,3.74,8.42l.22.21Zm2.61-1.26-.1.07-.1-.07a9.06944,9.06944,0,0,1-.02-14.89l.09-.07.1.06a8.8594,8.8594,0,0,1,3.93,7.44A9.03585,9.03585,0,0,1,30.1935,32.46Z"/></svg>