<svg id="Capa_1" data-name="Capa 1" xmlns="http://www.w3.org/2000/svg" viewBox="0 0 50 50"><defs><style>.cls-1{fill:#8cc541;}</style></defs><path class="cls-1" d="M36.60359,43.56576h-.985L32.07538,15.59967a.967.967,0,0,0-.95932-.84542H30.02822V11.07978a.96372.96372,0,0,0-.32625-.7229,4.92209,4.92209,0,0,0,.93631-2.96375c-.06218-2.87673-2.72423-4.98007-2.83756-5.06826a.96687.96687,0,0,0-1.108-.0556l-.0118.00755A4.66127,4.66127,0,0,0,23.61975.26475a.967.967,0,0,0-1.11684,1.22757c.28235.93486-.07871,1.3609-.99636,2.31868a7.52021,7.52021,0,0,0-1.77632,2.512,4.57862,4.57862,0,0,0,.35933,4.294.963.963,0,0,0-.11778.46279v3.67447H18.88394a.967.967,0,0,0-.95932.84542L14.38146,43.56576h-.98505a.96694.96694,0,0,0-.967.967v4.25465a.967.967,0,0,0,.967.967h7.26453a.967.967,0,0,0,0-1.93393H14.36338V45.49969H35.63662v2.32072H29.36353a.967.967,0,1,0,0,1.93393h7.24006a.967.967,0,0,0,.967-.967V44.53272A.96694.96694,0,0,0,36.60359,43.56576ZM19.618,17.62062l3.89368,3.32782-4.83928,4.136ZM31.85859,29.27527l1.59327,12.57538-7.08428-7.08428ZM25,33.39889,18.97281,27.3717,25,22.22038l6.02719,5.15122Zm6.32763-8.31455-4.83928-4.1359L30.382,17.62062ZM25,19.67639l-3.49636-2.98821h6.99281Zm-6.85859,9.59888,5.491,5.4911L16.548,41.85075ZM25,36.134l7.43181,7.43181H17.56819ZM21.53265,7.024A5.80661,5.80661,0,0,1,22.903,5.1488a5.16479,5.16479,0,0,0,1.56242-2.4559,3.2607,3.2607,0,0,1,1.15378,2.5202.967.967,0,0,0,1.635.78286,2.99719,2.99719,0,0,0,.59623-.81245A4.13282,4.13282,0,0,1,28.705,7.44244a3.6046,3.6046,0,0,1-1.3468,2.67028H22.177A2.6311,2.6311,0,0,1,21.53265,7.024Zm.37306,5.0227h6.18858v2.70751H21.90571Z"/><path class="cls-1" d="M25,47.82041a.96732.96732,0,1,0,.68364.28332A.97652.97652,0,0,0,25,47.82041Z"/></svg>