<svg id="Capa_1" data-name="Capa 1" xmlns="http://www.w3.org/2000/svg" viewBox="0 0 50 50"><defs><style>.cls-1{fill:#8cc541;}</style></defs><path class="cls-1" d="M25,7.68986a17.801,17.801,0,0,0-12.24812,4.8718.93188.93188,0,0,0-.12789.11051c-.02174.02275-.04208.04642-.06113.07075A17.85616,17.85616,0,1,0,25,7.68986Zm-.00009,1.84933c1.25239,0,2.61373,1.631,3.6415,4.36282a33.40971,33.40971,0,0,1,1.79791,10.72883H21.22588a.92485.92485,0,0,0,.0001,1.8497h9.21343a39.7058,39.7058,0,0,1-.63512,6.43779,17.942,17.942,0,0,0-9.60868-.00037,40.45417,40.45417,0,0,1-.64483-7.36227,40.54813,40.54813,0,0,1,.62994-7.28125,17.918,17.918,0,0,0,4.81918.658,18.08484,18.08484,0,0,0,2.4679-.16923.92477.92477,0,1,0-.2532-1.83212,16.23163,16.23163,0,0,1-2.2147.15175,16.06123,16.06123,0,0,1-4.42884-.62033A23.2213,23.2213,0,0,1,21.3584,13.902C22.38618,11.17009,23.74751,9.53919,24.99991,9.53919ZM21.32705,9.965a13.91138,13.91138,0,0,0-1.69961,3.286,24.75241,24.75241,0,0,0-.80759,2.59671,15.9538,15.9538,0,0,1-4.13773-2.53152A15.97924,15.97924,0,0,1,21.32705,9.965ZM9.01087,26.48054h2.31874a.92476.92476,0,0,0,0-1.84951H9.01087A15.95947,15.95947,0,0,1,13.332,14.596a17.7992,17.7992,0,0,0,5.08015,3.08351,42.139,42.139,0,0,0-.71077,7.87615,42.05306,42.05306,0,0,0,.72621,7.95485,17.8157,17.8157,0,0,0-5.052,3.0516A15.9608,15.9608,0,0,1,9.01087,26.48054Zm5.721,11.35712a15.96867,15.96867,0,0,1,4.10776-2.497,24.67521,24.67521,0,0,0,.7878,2.52005,13.91315,13.91315,0,0,0,1.69961,3.286A15.97919,15.97919,0,0,1,14.73188,37.83766ZM25,41.57228c-1.2523,0-2.61373-1.631-3.6415-4.36281a23.10059,23.10059,0,0,1-.76764-2.4814,16.09748,16.09748,0,0,1,8.81829.00018,23.108,23.108,0,0,1-.76764,2.48122C27.61373,39.94139,26.2524,41.57228,25,41.57228Zm3.673-.42557a13.91623,13.91623,0,0,0,1.6997-3.28593,24.67417,24.67417,0,0,0,.78761-2.52006,15.97337,15.97337,0,0,1,4.108,2.49675A15.97877,15.97877,0,0,1,28.673,41.14671Zm7.95124-4.58411a17.81828,17.81828,0,0,0-5.05185-3.05114,41.36013,41.36013,0,0,0,.717-7.03083h8.69974A15.96152,15.96152,0,0,1,36.62419,36.5626ZM32.28939,24.631a35.32328,35.32328,0,0,0-1.91674-11.38015A13.91036,13.91036,0,0,0,28.673,9.965a15.977,15.977,0,0,1,6.58315,3.299A16.06647,16.06647,0,0,1,32.778,15.00173a.92477.92477,0,1,0,.91394,1.608,17.91866,17.91866,0,0,0,2.91974-2.07413A15.96159,15.96159,0,0,1,40.98913,24.631Z"/><path class="cls-1" d="M16.02617,24.631h-1.929a.92476.92476,0,1,0,0,1.84951h1.929a.92476.92476,0,0,0,0-1.84951Z"/><path class="cls-1" d="M46.46887,19.55708a.92485.92485,0,0,0,.59045-1.167A23.21814,23.21814,0,1,0,8.287,41.7368a3.77074,3.77074,0,1,0,1.3015-1.31473A21.36344,21.36344,0,1,1,45.30191,18.96662.92475.92475,0,0,0,46.46887,19.55708ZM11.53324,41.72986a1.92035,1.92035,0,1,1-1.92035,1.92035A1.92252,1.92252,0,0,1,11.53324,41.72986Z"/><path class="cls-1" d="M47.96577,22.243a.92474.92474,0,1,0-1.83.26772,21.63732,21.63732,0,0,1,.2261,3.12049.92476.92476,0,1,0,1.84951,0A23.49067,23.49067,0,0,0,47.96577,22.243Z"/></svg>