<?xml version="1.0" encoding="UTF-8"?>
<svg width="200px" height="120px" viewBox="0 0 200 120" version="1.1" xmlns="http://www.w3.org/2000/svg" xmlns:xlink="http://www.w3.org/1999/xlink">
    <!-- Generator: Sketch 52.1 (67048) - http://www.bohemiancoding.com/sketch -->
    <title>Artboard</title>
    <desc>Created with Sketch.</desc>
    <g id="Artboard" stroke="none" stroke-width="1" fill="none" fill-rule="evenodd">
        <g id="Helicopter-icons-KEA-01" transform="translate(5.000000, 7.000000)" stroke="#FFFFFF" stroke-width="3">
            <path d="M26,32.9669534 C38.702486,32.9669534 51.4049719,32.9669534 64.1074579,32.9669534 C71.9342422,32.9669534 79.8893344,32.9669534 87.7161187,32.9669534 C89.6407378,32.9669534 92.0785886,33.3519179 94.0032077,32.9669534 C95.2862871,32.7103104 95.414595,32.5819889 96.5693665,31.2987739 C99.3921411,28.3473795 102.343224,25.2676636 105.165998,22.3162692 C106.705694,20.7764112 109.015237,17.1834094 110.939856,16.2851589 C111.709703,15.9001944 113.377706,16.2851589 114.275862,16.2851589 C115.430634,16.2851589 118.510024,15.6435514 119.536488,16.2851589 C120.947875,17.1834094 122.230954,22.0596262 123.000802,23.7278057 C128.518043,35.7900263 132.238974,48.3655329 136.21652,61.0693611 C137.884523,66.3305424 139.552526,70.1801873 145.454691,72.2333312 C153.281476,74.9280826 162.904571,73.7731892 171.116279,73.6448677 C176.120289,73.6448677 180.99599,73.6448677 186,73.5165462" id="Path"></path>
            <path d="M127.00341,33.01432 C148.125796,32.5012303 171.040384,45.8415618 183.329772,62.5169762 C188.578365,69.7002316 190.754611,80.3468423 182.561685,86.2473735 C175.52089,91.3782703 164.511647,90.993453 156.446735,90.993453 C139.420812,90.993453 122.266874,90.993453 105.240951,90.993453 C98.2001558,90.993453 91.6714184,88.2997322 86.8068688,83.1688355 C83.4784929,79.7054802 81.4302615,75.344218 79.2540157,71.2395006 C77.0777698,67.2630557 74.7735095,63.2866107 72.8532926,59.1818933 C68.7568299,50.7159137 62.1000779,47.6373757 53.2670801,46.2263791 C44.1780534,44.8153825 35.0890267,43.4043859 26,41.9933893" id="Path"></path>
            <path d="M89,106.987717 C114.387887,106.987717 139.775773,106.455039 165.291237,106.987717 C173.328608,107.120887 184.68299,106.321869 188,97" id="Path"></path>
            <path d="M130.5,91 L130.5,107" id="Path"></path>
            <path d="M163.5,91 L163.5,107" id="Path"></path>
            <path d="M106.5,48 L106.5,77" id="Path"></path>
            <path d="M121,61.5 L92,61.5" id="Path"></path>
            <path d="M39,0.5 L191,0.5" id="Path"></path>
            <path d="M114.5,16 L114.5,0" id="Path"></path>
            <path d="M0,36.5599674 C0,29.767332 5.6122449,24 12.5,24 C19.2602041,24 25,29.639169 25,36.5599674 C25,43.2244399 19.6428571,48.735446 13.0102041,48.9917719 C5.99489796,49.2480977 0,43.4807658 0,36.5599674 Z" id="Path"></path>
            <path d="M4.81378991,27 C3.50344474,23.2881433 2.19309957,19.5762866 0.882754402,15.992425 C0.620685368,15.3524497 -0.296556251,13.5605189 0.0965473,13.0485386 C0.620685368,12.1525732 4.94482443,11.2566078 5.99310057,10.8726226 C6.91034219,10.4886374 8.22068736,9.7206671 9.00689446,10.1046523 C10.0551706,10.6166325 11.1034467,13.944504 11.6275848,14.8404694 C13.462068,18.168341 15.2965513,21.4962125 17,24.824084" id="Path"></path>
            <path d="M7.16793893,48.1313869 C7.16793893,50.8905109 7.16793893,53.649635 7.16793893,56.4087591 C7.16793893,56.9343066 6.79007634,59.4306569 7.16793893,59.8248175 C7.54580153,60.2189781 9.9389313,59.8248175 10.5687023,59.8248175 C13.4656489,59.8248175 13.3396947,58.2481752 14.5992366,55.4890511 C15.7328244,52.9927007 16.8664122,50.4963504 18,48" id="Path"></path>
        </g>
    </g>
</svg>