<?xml version="1.0" encoding="UTF-8"?>
<svg width="120px" height="110px" viewBox="0 0 120 110" version="1.1" xmlns="http://www.w3.org/2000/svg" xmlns:xlink="http://www.w3.org/1999/xlink">
    <!-- Generator: Sketch 52.1 (67048) - http://www.bohemiancoding.com/sketch -->
    <title>Artboard</title>
    <desc>Created with Sketch.</desc>
    <g id="Artboard" stroke="none" stroke-width="1" fill="none" fill-rule="evenodd">
        <g id="Group" transform="translate(2.000000, 5.000000)" stroke="#FFFFFF" stroke-width="3">
            <path d="M0.7,5.4 L115.2,5.4" id="Path"></path>
            <path d="M57.9,0 L57.9,13.1" id="Path"></path>
            <path d="M37.5,36.5 L77.7,36.5" id="Path"></path>
            <path d="M24.3,97.3 L34.6,97.3" id="Path"></path>
            <path d="M81,97.3 L91.3,97.3" id="Path"></path>
            <path d="M33.7,65.9 L81.8,65.9" id="Path"></path>
            <path d="M57.9,25.6 C57.9,25.6 76.2,24.6 78.7,40.6 L81.3,59.6 C81.3,59.6 84.5,73.6 72.5,75 L41.3,75 C41.3,75 32.9,72.9 33.4,62.1 L36.4,39.7 C36.5,39.7 38,25.5 57.9,25.6 Z" id="Path"></path>
            <path d="M54,25.6 L54,18.6 C54,18.6 53.1,14.5 57.6,14.5 C61.7,14.5 61.5,18.5 61.5,18.5 L61.5,25.6" id="Path"></path>
            <path d="M58.3,65.2 L58.3,41.4" id="Path"></path>
            <path d="M29.3,96.6 L32.9,80.5 C32.9,80.5 33.5,75 38.1,75 C42.7,75 77.6,75 77.6,75 C77.6,75 81.4,75 82.6,80.7 C83.8,86.4 86.1,96.3 86.1,96.3" id="Path"></path>
        </g>
    </g>
</svg>