<?xml version="1.0" encoding="utf-8"?>
<!-- Generator: Adobe Illustrator 21.0.0, SVG Export Plug-In . SVG Version: 6.00 Build 0)  -->
<svg version="1.1" id="Layer_1" xmlns="http://www.w3.org/2000/svg" xmlns:xlink="http://www.w3.org/1999/xlink" x="0px" y="0px"
	 viewBox="0 0 166.1 99.5" style="enable-background:new 0 0 166.1 99.5;" xml:space="preserve">
<style type="text/css">
	.st0{fill:none;stroke:#FFFFFF;stroke-width:3;stroke-miterlimit:10;}
	.st1{fill:#85859E;stroke:#FFFFFF;stroke-miterlimit:10;}
</style>
<g>
	<path class="st0" d="M30,34.5c9.9,0,19.8,0,29.7,0c6.1,0,12.3,0,18.4,0c1.5,0,3.4,0.3,4.9,0c1-0.2,1.1-0.3,2-1.3
		c2.2-2.3,4.5-4.7,6.7-7c1.2-1.2,3-4,4.5-4.7c0.6-0.3,1.9,0,2.6,0c0.9,0,3.3-0.5,4.1,0c1.1,0.7,2.1,4.5,2.7,5.8
		c4.3,9.4,7.2,19.2,10.3,29.1c1.3,4.1,2.6,7.1,7.2,8.7c6.1,2.1,13.6,1.2,20,1.1c3.9,0,7.7,0,11.6-0.1"/>
	<path class="st0" d="M109,34.5c16.5-0.4,34.4,10,44,23c4.1,5.6,5.8,13.9-0.6,18.5c-5.5,4-14.1,3.7-20.4,3.7c-13.3,0-26.7,0-40,0
		c-5.5,0-10.6-2.1-14.4-6.1c-2.6-2.7-4.2-6.1-5.9-9.3c-1.7-3.1-3.5-6.2-5-9.4c-3.2-6.6-8.4-9-15.3-10.1c-7.1-1.1-14.2-2.2-21.3-3.3"
		/>
	<path class="st0" d="M79.2,92c19.9,0,39.8-0.4,59.8,0c6.3,0.1,15.2-0.5,17.8-7.5"/>
	<line class="st0" x1="112" y1="79.7" x2="112" y2="92"/>
	<line class="st0" x1="137.5" y1="79.7" x2="137.5" y2="92"/>
	<line class="st0" x1="93.4" y1="46.2" x2="93.4" y2="69"/>
	<line class="st0" x1="104.7" y1="57.1" x2="82" y2="57.1"/>
	<line class="st0" x1="40.5" y1="9.2" x2="158.7" y2="9.2"/>
	<line class="st0" x1="99.6" y1="21.5" x2="99.6" y2="9.2"/>
	<path class="st0" d="M10,37.5c0-5.3,4.4-9.8,9.8-9.8c5.3,0,9.8,4.4,9.8,9.8c0,5.2-4.2,9.5-9.4,9.7C14.7,47.4,10,42.9,10,37.5z"/>
	<path class="st0" d="M13.7,29.8c-1-2.9-2-5.8-3-8.6c-0.2-0.5-0.9-1.9-0.6-2.3c0.4-0.7,3.7-1.4,4.5-1.7c0.7-0.3,1.7-0.9,2.3-0.6
		c0.8,0.4,1.6,3,2,3.7c1.4,2.6,2.8,5.2,4.1,7.8"/>
	<path class="st0" d="M15.4,46.2c0,2.1,0,4.2,0,6.3c0,0.4-0.3,2.3,0,2.6c0.3,0.3,2.2,0,2.7,0c2.3,0,2.2-1.2,3.2-3.3
		c0.9-1.9,1.8-3.8,2.7-5.7"/>
</g>
</svg>
