<svg id="Capa_1" data-name="Capa 1" xmlns="http://www.w3.org/2000/svg" viewBox="0 0 50 50"><defs><style>.cls-1{fill:#8cc541;}</style></defs><path class="cls-1" d="M49.63906,9.643a1.22576,1.22576,0,0,0-.8718-.361H43.86a1.232,1.232,0,0,0-1.10651.68935L39.97239,15.641H34.27318l-.074-.0927A7.80555,7.80555,0,0,0,28.0996,12.6144H22.33136V9.23077H38.31755a1.23275,1.23275,0,1,0,0-2.46549H3.09073a1.23275,1.23275,0,1,0,0,2.46549H19.86588V12.6144h-.24655c-.77811,0-1.36588-.002-1.83037-.002-.571,0-.95859.003-1.29093.01282-.33334.01085-.61243.02958-.97338.06311h-.001l-.01085.002A17.13893,17.13893,0,0,0,0,29.73077,5.916,5.916,0,0,0,5.91026,35.641H9.287v5.1282h-4.782a2.04045,2.04045,0,0,1-2.03945-2.03945,1.23274,1.23274,0,1,0-2.46548,0,4.51192,4.51192,0,0,0,4.50493,4.50494H42.75345a1.23275,1.23275,0,1,0,0-2.46549H29.714V35.641h2.498A5.16545,5.16545,0,0,0,37.3284,29.7357c-1.07-7.43491-1.38955-9.72189-1.53057-10.58974-.04734-.289-.073-.41519-.09961-.52367-.01577-.06312-.03254-.12327-.05424-.20612l-.08283-.30966H48.76726A1.23234,1.23234,0,0,0,50,16.87376v-6.359A1.22987,1.22987,0,0,0,49.63906,9.643ZM2.7288,26.96548A14.68954,14.68954,0,0,1,14.11539,15.38955l.29684-.06214v8.12131a3.81322,3.81322,0,0,1-3.80868,3.80967h-7.931Zm24.51972,13.5572H27.002v.24655H11.75246V35.641H27.24852Zm6.88265-8.14694a2.69243,2.69243,0,0,1-1.91914.7998H5.91026a3.448,3.448,0,0,1-3.43393-3.18639l-.01973-.26528h8.147a6.28129,6.28129,0,0,0,6.27416-6.27515V15.07988H28.0996a5.36839,5.36839,0,0,1,5.288,4.58087l1.5,10.426a2.756,2.756,0,0,1,.0286.38954A2.699,2.699,0,0,1,34.13117,32.37574ZM47.53452,15.641H42.718l1.91026-3.89349h2.90631Z"/><path class="cls-1" d="M30.65779,24.12722A1.23234,1.23234,0,0,1,29.42505,25.36H26.63511v2.79093a1.23274,1.23274,0,1,1-2.46548,0V25.36H21.3787a1.23274,1.23274,0,1,1,0-2.46548h2.79093V20.10355a1.23274,1.23274,0,0,1,2.46548,0v2.79093h2.78994a1.23233,1.23233,0,0,1,1.23274,1.23274Z"/></svg>