<?xml version="1.0" encoding="utf-8"?>
<!-- Generator: Adobe Illustrator 21.0.0, SVG Export Plug-In . SVG Version: 6.00 Build 0)  -->
<svg version="1.1" id="Layer_1" xmlns="http://www.w3.org/2000/svg" xmlns:xlink="http://www.w3.org/1999/xlink" x="0px" y="0px"
	 viewBox="0 0 113 130.7" style="enable-background:new 0 0 113 130.7;" xml:space="preserve">
<style type="text/css">
	.st0{fill:none;stroke:#FFFFFF;stroke-width:3;stroke-miterlimit:10;}
	.st1{fill:#85859E;stroke:#FFFFFF;stroke-miterlimit:10;}
</style>
<g>
	<path class="st0" d="M19.3,12l64.3,0c0,0,9.7,0,9.7,10.3s0,85.3,0,85.3"/>
	<path class="st0" d="M26.6,29.3H13V18c0,0-0.3-5.7,6.3-6c6.7-0.3,7.3,5.7,7.3,5.7V109c0,0-1,12,9,12.3c10,0.3,9.3-9,9.3-13.7h56.7
		c0,13.7-12.3,13.7-12.3,13.7H35.6"/>
	<polyline class="st0" points="67,83.3 67,98 74.6,93.4 81.3,98 81.3,83.3 	"/>
	<circle class="st0" cx="74.1" cy="74" r="11.7"/>
	<line class="st0" x1="38.3" y1="25.4" x2="81.3" y2="25.4"/>
	<line class="st0" x1="48" y1="39" x2="81.3" y2="39"/>
	<line class="st0" x1="48" y1="53.1" x2="81.3" y2="53.1"/>
	<line class="st0" x1="38.3" y1="65" x2="53.3" y2="65"/>
	<line class="st0" x1="38.3" y1="80.7" x2="53.3" y2="80.7"/>
	<line class="st0" x1="38.3" y1="94" x2="53.3" y2="94"/>
	<circle class="st1" cx="40" cy="39.7" r="2.3"/>
	<circle class="st1" cx="40" cy="53.5" r="2.3"/>
</g>
</svg>
