<?xml version="1.0" encoding="UTF-8"?>
<svg width="100px" height="118px" viewBox="0 0 100 118" version="1.1" xmlns="http://www.w3.org/2000/svg" xmlns:xlink="http://www.w3.org/1999/xlink">
    <!-- Generator: Sketch 52.1 (67048) - http://www.bohemiancoding.com/sketch -->
    <title>Artboard</title>
    <desc>Created with Sketch.</desc>
    <g id="Artboard" stroke="none" stroke-width="1" fill="none" fill-rule="evenodd">
        <g id="Icons-KEA-01" transform="translate(6.000000, 3.000000)" stroke="#FFFFFF">
            <g id="Group">
                <path d="M7.4,0.5 L71.7,0.5 C71.7,0.5 81.4,0.5 81.4,10.8 C81.4,21.1 81.4,96.1 81.4,96.1" id="Path" stroke-width="3"></path>
                <path d="M14.7,17.7 L1,17.7 L1,6.5 C1,6.5 0.7,0.8 7.3,0.5 C14,0.2 14.6,6.2 14.6,6.2 L14.6,97.5 C14.6,97.5 13.6,109.5 23.6,109.8 C33.6,110.1 32.9,100.8 32.9,96.1 L89.6,96.1 C89.6,109.8 77.3,109.8 77.3,109.8 L23.6,109.8" id="Path" stroke-width="3"></path>
                <polyline id="Path" stroke-width="3" points="55.1 71.7 55.1 86.5 62.7 81.8 69.4 86.5 69.4 71.7"></polyline>
                <circle id="Oval" stroke-width="3" cx="62.2" cy="62.5" r="11.7"></circle>
                <path d="M26.4,13.8 L69.4,13.8" id="Path" stroke-width="3"></path>
                <path d="M36.1,27.5 L69.4,27.5" id="Path" stroke-width="3"></path>
                <path d="M36.1,41.6 L69.4,41.6" id="Path" stroke-width="3"></path>
                <path d="M26.4,53.5 L41.4,53.5" id="Path" stroke-width="3"></path>
                <path d="M26.4,69.2 L41.4,69.2" id="Path" stroke-width="3"></path>
                <path d="M26.4,82.5 L41.4,82.5" id="Path" stroke-width="3"></path>
                <circle id="Oval" cx="28.1" cy="28.2" r="2.3"></circle>
                <circle id="Oval" cx="28.1" cy="42" r="2.3"></circle>
            </g>
        </g>
    </g>
</svg>