<svg id="Capa_1" data-name="Capa 1" xmlns="http://www.w3.org/2000/svg" viewBox="0 0 50 50"><defs><style>.cls-1{fill:#8cc541;}</style></defs><polygon class="cls-1" points="8.692 18.631 8.692 18.631 8.692 18.631 8.692 18.631"/><polygon class="cls-1" points="26.496 8.298 26.477 8.306 26.477 8.306 26.496 8.298"/><path class="cls-1" d="M47.22181,14.90688l.00054-.07775a4.13425,4.13425,0,0,0-.56491-2.17562,3.96386,3.96386,0,0,0-1.69074-1.495l.00018.00012a4.14929,4.14929,0,0,0-1.83481-.45316,4.027,4.027,0,0,0-2.59688,1.01626l-.20911.15222-.09508.03033a.37689.37689,0,0,1-.18074-.0666l-.00012-.00012Q34.79444,8.77874,29.518,5.75754a.697.697,0,0,1-.21558-.1657l-.03453-.12763a.95042.95042,0,0,1,.03171-.21708,3.67908,3.67908,0,0,0,.10246-.86321A4.05978,4.05978,0,0,0,27.57014,1.049a4.01227,4.01227,0,0,0-4.53648.05887,4.079,4.079,0,0,0-1.742,3.3035,3.7302,3.7302,0,0,0,.11966.93983l.027.16707-.01355.05833a.48.48,0,0,1-.146.11067q-5.34131,3.07064-10.67061,6.16315a.38045.38045,0,0,1-.17062.06732c-.01265.001-.06042-.00246-.20418-.13057a3.89427,3.89427,0,0,0-2.63879-1.07507,4.23185,4.23185,0,0,0-1.45089.269A3.99383,3.99383,0,0,0,3.46483,14.826l.00132.10988A4.07721,4.07721,0,0,0,6.3433,18.64783c.15731.04892.19214.08891.19447.09418.00408.00372.02788.042.02788.19136v.0042q-.00549,2.87019-.00641,5.74092,0,3.16.01265,6.32v.00768a.45733.45733,0,0,1-.04557.259c-.01624.02368-.06078.06822-.22229.12295l.00042-.00012a4.16447,4.16447,0,0,0-1.98264,1.32572A4.01255,4.01255,0,0,0,3.48935,34.93q-.01636.19872-.01636.39218a3.80583,3.80583,0,0,0,2.21572,3.51015,4.08546,4.08546,0,0,0,1.86736.47792,4.05755,4.05755,0,0,0,2.61625-1.03053c.163-.13429.23266-.14831.2781-.14867a.56232.56232,0,0,1,.26258.09987q5.2548,3.058,10.53,6.08048a.575.575,0,0,1,.17319.131l.01943.07739-.02428.167a4.087,4.087,0,0,0-.11187.94588,4.00712,4.00712,0,0,0,3.9946,3.9916l.001.00006.04622.00018a4.04952,4.04952,0,0,0,2.88494-1.178,3.97244,3.97244,0,0,0,1.164-2.8166,4.18617,4.18617,0,0,0-.09952-.903,1.075,1.075,0,0,1-.03195-.21756l.01463-.07044a.41286.41286,0,0,1,.14327-.11265l.00024-.00012q5.23141-2.99059,10.43717-6.02526a.82754.82754,0,0,1,.39051-.14693c.08081.001.18267.02739.38266.19088a3.87877,3.87877,0,0,0,2.49862.96674,4.09513,4.09513,0,0,0,1.84152-.46443,4.03858,4.03858,0,0,0,1.68668-1.50227,4.127,4.127,0,0,0,.5667-2.17628l-.00042-.06912a4.03137,4.03137,0,0,0-2.72907-3.69209l-.00066-.00024a1.743,1.743,0,0,1-.32786-.12494l-.01949-.02122-.01774-.12164v-.00239q.01313-3.03593.01133-6.07017,0-3.10526-.00414-6.20966l.00833-.11421.00468-.01624.01846-.01217.10108-.03921.03921-.01163-.03909.01157A4.03264,4.03264,0,0,0,47.22181,14.90688ZM9.66389,35.25438h0a2.15715,2.15715,0,0,1-2.13983,2.14355l-.04053-.00036a2.21937,2.21937,0,0,1-2.141-2.11088l.00054-.04328a2.16945,2.16945,0,0,1,2.199-2.16357l.03519.0003h.00024a2.12952,2.12952,0,0,1,2.08672,2.13833ZM41.03025,14.73177a2.14373,2.14373,0,0,1,2.1035-2.12011l.05113.00072h.0003a2.21723,2.21723,0,0,1,2.172,2.138l-.00006.01a2.22079,2.22079,0,0,1-2.19271,2.1743l-.00372.00006A2.15182,2.15182,0,0,1,41.03,14.764l.00024-.03213-.36833-.00528Zm-.84187,17.735-.023.00857-.01805-.00473-.087-.04437-.00066-.00042c-.826-.507-1.67439-.93718-2.45594-1.43152l.00048.0003a.97258.97258,0,0,0-.51653-.1747.70045.70045,0,0,0-.55315.29088c-.09981.12967-.15713.24573-.20958.31881a.90726.90726,0,0,0-.1853.51292.67181.67181,0,0,0,.17571.44729,1.23251,1.23251,0,0,0,.33961.2552c.82364.44824,1.63458.93928,2.46877,1.40845l.00024.00012.11366.08447.01205.077-.01.12158a6.58559,6.58559,0,0,0-.06732.91129,4.5219,4.5219,0,0,0,.083.8909l.023.19226-.032.12883a.64442.64442,0,0,1-.20317.15551l.00024-.00012q-4.32939,2.47129-8.64217,4.96842l.00024-.00018c-.64775.37276-1.30042.74552-1.94547,1.13969l.0003-.00012a.31963.31963,0,0,1-.14928.06247c-.01151.00108-.064-.0045-.202-.11025a7.591,7.591,0,0,0-1.62306-.9394l.00048.00018a.39738.39738,0,0,1-.1678-.10294c-.00582-.00917-.02272-.03195-.02374-.14861v-.00618q.00153-.22624.00144-.45207c0-.56562-.00576-1.12873-.00576-1.68919,0-.39963.00294-.79787.01283-1.19473L26.3,38.094a1.19617,1.19617,0,0,0-.04832-.36048.69658.69658,0,0,0-.36-.42594,1.10962,1.10962,0,0,0-.49123-.09286l-.05119.0006H25.3489a1.158,1.158,0,0,0-.63475.1494.68182.68182,0,0,0-.25364.31761A1.06482,1.06482,0,0,0,24.394,38.08l.00072.05024c.01085.38259.01379.767.01379,1.15306,0,.43475-.00371.87172-.00371,1.31085,0,.27253.00143.5459.00611.82005l.00018.02242c-.00078.13584-.0214.17277-.03273.1892a.43107.43107,0,0,1-.19688.1184,5.79883,5.79883,0,0,0-1.55376.89156l.00024-.00017c-.15089.12355-.21042.13128-.24459.13188a.52974.52974,0,0,1-.2425-.09514c-2.20937-1.288-4.42551-2.562-6.63788-3.84035-1.29461-.7481-2.58615-1.50868-3.89676-2.24222a.51312.51312,0,0,1-.17272-.13135l-.0229-.10311.02488-.20155a4.97341,4.97341,0,0,0,.09634-.96956,4.36834,4.36834,0,0,0-.07044-.79379l-.01685-.15323.02314-.09891a.60454.60454,0,0,1,.18309-.131c.7342-.4034,1.42511-.84631,2.13239-1.219a1.27394,1.27394,0,0,0,.3805-.28488.71094.71094,0,0,0,.17685-.46659,1.11943,1.11943,0,0,0-.19477-.576,1.26378,1.26378,0,0,0-.29963-.35208.73628.73628,0,0,0-.4516-.15707,1.13309,1.13309,0,0,0-.59715.20767c-.67569.427-1.40773.80356-2.12227,1.24838-.09418.05809-.12763.05851-.13362.05851-.00414.00156-.05138-.00312-.181-.09532a11.62557,11.62557,0,0,0-1.68458-.99737l-.00041-.00018a.48807.48807,0,0,1-.19292-.12991c-.01391-.02147-.033-.05306-.03447-.18225v-.00288q.00575-2.85131.00563-5.70213,0-3.20614-.00659-6.4123v-.0015c.00114-.14435.02236-.17487.03147-.18788a.50712.50712,0,0,1,.21366-.12319,7.40113,7.40113,0,0,0,1.61839-.95961c.13944-.10365.19214-.11109.20533-.10971a.33471.33471,0,0,1,.15623.06391c.9656.58061,1.94985,1.103,2.88655,1.67612a.9594.9594,0,0,0,.49716.16192.67008.67008,0,0,0,.468-.19435,1.29276,1.29276,0,0,0,.2335-.32894l.00036-.00066a1.32966,1.32966,0,0,0,.22343-.6167.66086.66086,0,0,0-.13764-.40184,1.03383,1.03383,0,0,0-.342-.27619c-.9502-.51107-1.88079-1.08856-2.84855-1.62546l.00036.00018a.58318.58318,0,0,1-.18261-.134l-.0253-.10929.01493-.14777a4.86126,4.86126,0,0,0,.06786-.82011,5.32925,5.32925,0,0,0-.08267-.93353l-.02128-.19471.02386-.11169a.50217.50217,0,0,1,.17145-.13387c2.91791-1.66844,5.82426-3.35446,8.733-5.03471.63025-.36414,1.26883-.72353,1.90034-1.10541l.12649-.05126c.01181-.00126.064.00588.194.1018l-.00018-.00018a7.89732,7.89732,0,0,0,1.56408.92184.61617.61617,0,0,1,.23668.14184c.01637.02356.03681.04868.03921.18884l-.0003.02632c-.00672.28565-.00875.57029-.00875.85379,0,.42331.00443.84415.00443,1.2623,0,.35507-.00318.70824-.01475,1.0593l-.00113.0666a1.19779,1.19779,0,0,0,.054.38206.71118.71118,0,0,0,.39219.43367,1.302,1.302,0,0,0,.52144.088H25.367l.00444-.00012v.00012a.97952.97952,0,0,0,.67694-.20311.71458.71458,0,0,0,.20473-.32636,1.21694,1.21694,0,0,0,.04736-.361l-.0006-.04922c-.00953-.404-.01211-.80949-.01211-1.21649,0-.47246.00348-.94678.00348-1.42277q0-.32148-.00276-.644L26.28842,8.536c.00132-.11564.01787-.13027.02026-.13471a.41238.41238,0,0,1,.168-.09537l.00072-.0003a6.31293,6.31293,0,0,0,1.55287-.88018c.17139-.13531.24687-.15347.29183-.15293a.52918.52918,0,0,1,.24969.09442c3.1854,1.85969,6.38244,3.69863,9.57432,5.54339l.18728.11084.02074.01223.02182.00936a2.58912,2.58912,0,0,1,.69889.3944.57265.57265,0,0,1,.21474.46293,1.34418,1.34418,0,0,1-.093.45052,1.37928,1.37928,0,0,0-.0753.47126,5.05423,5.05423,0,0,0,.12955.90715l.01211.10707-.00509.03837-.10875.07859-.00054.0003c-.85782.474-1.67942.98659-2.51685,1.43909a1.08,1.08,0,0,0-.33883.26809.66981.66981,0,0,0-.14982.41994,1.00309,1.00309,0,0,0,.18483.53265l-.00012-.00024a3.14961,3.14961,0,0,0,.21336.32553.69283.69283,0,0,0,.53822.27283.944.944,0,0,0,.492-.16067c.77779-.48,1.603-.91326,2.41152-1.40509l.00054-.00036a.413.413,0,0,1,.1913-.08009c.018-.00012.06792.00414.20449.112l-.00024-.00018a5.64283,5.64283,0,0,0,1.54135.92351.54782.54782,0,0,1,.27793.16648.51113.51113,0,0,1,.05551.29441l-.00012.016q-.01177,1.39606-.00989,2.79112c0,1.06278.0027,2.125.0027,3.18636h.36833l-.36833.00006v.133c0,.98167-.00252,1.9637-.00252,2.94633q0,1.394.01115,2.78962l.00012.01834a.528.528,0,0,1-.05563.29849.561.561,0,0,1-.27589.17439l-.00048.00018a7.65576,7.65576,0,0,0-1.60622.97118l.0006-.00042ZM25.3022,47.74907H25.295a2.15921,2.15921,0,0,1-2.10949-2.115l-.00006-.01793a2.20313,2.20313,0,0,1,2.18509-2.1912l.01744.00012a2.21974,2.21974,0,0,1,2.11819,2.14037l.00012.02266A2.131,2.131,0,0,1,25.3022,47.74907ZM7.544,16.93322l-.03087.00012a2.21376,2.21376,0,0,1-2.1704-2.16105V14.77l-.00006-.0078a2.19678,2.19678,0,0,1,2.1502-2.14822l.00269-.00006.02722-.00018A2.12743,2.12743,0,0,1,9.661,14.76654v.00222a2.14012,2.14012,0,0,1-2.12,2.16446ZM27.50671,4.44759A2.12105,2.12105,0,0,1,25.36838,6.563L25.3486,6.563h0a2.12372,2.12372,0,0,1-2.16123-2.14481l.00006-.0181A2.20722,2.20722,0,0,1,25.3426,2.25243l.05186.00072h.00048a2.19546,2.19546,0,0,1,2.112,2.165ZM43.199,37.39943H43.1865a2.14421,2.14421,0,0,1-2.15817-2.16417v-.00072A2.13751,2.13751,0,0,1,43.195,33.07918l.0051.00006h.001a2.19556,2.19556,0,0,1,2.1484,2.15506l.00006.008a2.233,2.233,0,0,1-2.1505,2.1571Z"/><polygon class="cls-1" points="36.655 32.645 36.655 32.645 36.655 32.645 36.655 32.645"/><polygon class="cls-1" points="20.796 18.94 20.787 18.936 20.777 18.93 20.796 18.94"/><polygon class="cls-1" points="27.441 30.948 27.441 30.948 27.442 30.947 27.441 30.948"/><path class="cls-1" d="M35.032,22.67624l-.00018-.00006c-.57935-.17457-1.15846-.38715-1.75429-.58492a1.26975,1.26975,0,0,1-.37091-.16792l-.01918-.01876-.0009-.01223a1.064,1.064,0,0,1,.12685-.3748c.28164-.59356.56023-1.18394.85967-1.75682a1.15914,1.15914,0,0,0,.14478-.53768,1.03393,1.03393,0,0,0-.3323-.7348c-.58163-.58259-1.16535-1.15864-1.73685-1.743a1.15608,1.15608,0,0,0-.8309-.38769,1.26385,1.26385,0,0,0-.5884.159l.00066-.00036c-.52713.27564-1.06572.53666-1.60772.79666l.00042-.00024a1.31986,1.31986,0,0,1-.45357.159l-.01469-.00114-.00036-.00072a1.187,1.187,0,0,1-.21678-.46161,15.97916,15.97916,0,0,0-.63138-1.7926,1.25221,1.25221,0,0,0-.40556-.46167,1.17638,1.17638,0,0,0-.578-.23242c-.38733-.029-.77185-.03639-1.15265-.03639-.43007,0-.85541.00947-1.27476.00947h-.06324l-.0057-.00006a1.17359,1.17359,0,0,0-.67.186,1.09388,1.09388,0,0,0-.41935.58852c-.20047.623-.40453,1.24467-.6164,1.86215a.95388.95388,0,0,1-.158.32055l-.05809.027a.91955.91955,0,0,1-.347-.113c-.5887-.2829-1.17459-.57438-1.75951-.86927l-.00018-.00006a1.19921,1.19921,0,0,0-.53984-.1392,1.09124,1.09124,0,0,0-.77994.35568c-.57378.57953-1.16578,1.14893-1.74722,1.73811a1.10945,1.10945,0,0,0-.35293.78174,1.16084,1.16084,0,0,0,.14436.54206c.29987.56862.57276,1.16212.86291,1.75717a.94706.94706,0,0,1,.11918.34957l-.02152.03938a1.064,1.064,0,0,1-.33374.16085c-.58558.20173-1.16871.40178-1.75328.58115l-.02709.00827.02733-.00833a1.20944,1.20944,0,0,0-.63462.41688,1.18254,1.18254,0,0,0-.21827.72581l.00012.018c.00437.44261.01259.88252.01259,1.31877,0,.32294-.0045.64385-.01805.96242l-.0018.08225a1.20149,1.20149,0,0,0,.25161.78234,1.36778,1.36778,0,0,0,.674.41965l.00018.00006c.60189.1877,1.20132.39422,1.802.6056a.70792.70792,0,0,1,.24723.12752l.01463.033a.661.661,0,0,1-.08129.25221c-.28674.59379-.56394,1.18172-.876,1.7393l.00036-.0006a1.2946,1.2946,0,0,0-.18416.63445,1.22048,1.22048,0,0,0,.43025.88137q.82569.79141,1.62247,1.6115a1.15357,1.15357,0,0,0,.83408.39123,1.34767,1.34767,0,0,0,.63672-.17919l.00066-.00036c.5339-.28812,1.09053-.55052,1.65112-.81873l.00072-.00036a1.14944,1.14944,0,0,1,.36677-.13309l.05359.07644a2.13225,2.13225,0,0,1,.12494.29249c.21066.58337.41994,1.1587.58486,1.73745a1.22461,1.22461,0,0,0,.46922.69985,1.32636,1.32636,0,0,0,.76592.20982v.0003l.00629.00006h.00048c.766-.001,1.534.001,2.30427-.00773l.01055-.00012-.01121.00012a1.22424,1.22424,0,0,0,.71879-.21216A1.19751,1.19751,0,0,0,27.689,34.681c.19561-.64752.43379-1.29275.66483-1.94961l-.00018.0006a.45917.45917,0,0,1,.10114-.18309l.044-.01643a.4751.4751,0,0,1,.197.06277q.85761.43632,1.72265.85386l-.0003-.00018c.2094.10095.406.1636.59673.2401l.16007.06372.15149-.082a2.19808,2.19808,0,0,0,.55867-.32654l-.0003.0003c.61184-.594,1.2482-1.191,1.82233-1.85933a1.141,1.141,0,0,0,.22691-.7342,1.30532,1.30532,0,0,0-.07979-.46754c-.26594-.67995-.625-1.28795-.90949-1.89506l-.00018-.00042a.61414.61414,0,0,1-.07284-.2353l.01391-.03609a.59587.59587,0,0,1,.21767-.11606c.6456-.23278,1.30018-.44944,1.95759-.665l.0006-.00024a1.15049,1.15049,0,0,0,.57425-.38415,1.09334,1.09334,0,0,0,.20683-.67671l-.00012-.02182q-.0054-.4132-.005-.82742c0-.54194.00546-1.08484.01121-1.62894l.00006-.01913a1.06139,1.06139,0,0,0-.81675-1.10085Zm-1.199,3.05952-.01541.01187c-.5194.22361-1.09365.38433-1.67624.5917l-.00018.00011a1.77219,1.77219,0,0,0-.88389.75543,2.15608,2.15608,0,0,0-.32763,1.11337,1.5547,1.5547,0,0,0,.13969.66088c.24908.53289.50926,1.06734.79966,1.58932l.04712.12913c.00024.01409-.0021.05437-.10731.17271a7.516,7.516,0,0,1-.61016.63367c-.14508.11672-.18681.12289-.25053.126a3.008,3.008,0,0,1-.98431-.41659A3.35851,3.35851,0,0,0,28.461,30.601a1.70938,1.70938,0,0,0-1.01949.34675,2.24749,2.24749,0,0,0-.74769.83347,15.60358,15.60358,0,0,0-.59158,1.69069c-.03579.106-.06127.12583-.075.13656a.34935.34935,0,0,1-.18692.03879l-.0003.00006c-.24513.00869-.44632.01607-.60723.016a1.67009,1.67009,0,0,1-.41191-.03465c-.10815-.03927-.11426-.03627-.2076-.18776a6.02218,6.02218,0,0,1-.32313-.8839,4.68191,4.68191,0,0,0-.4251-1.067,1.69548,1.69548,0,0,0-1.12285-.77892,3.05824,3.05824,0,0,0-.6634-.09275,1.49875,1.49875,0,0,0-.745.19274l.00066-.00042c-.46574.25766-.95151.48991-1.44489.70632l-.00144.00066-.16175.03645a9.79877,9.79877,0,0,1-.93041-.93047l.02422-.11294c.21936-.48745.46808-.9701.71526-1.46151a1.98289,1.98289,0,0,0,.21234-.893,1.95438,1.95438,0,0,0-1.26943-1.84368l-.0003-.00012c-.54937-.19963-1.08862-.34237-1.568-.55022l-.01913-.02134c-.03734-.04394-.09292-.14406-.16324-.2558-.01385-.26252-.02452-.478-.0244-.64242a1.35492,1.35492,0,0,1,.036-.375c.03681-.09328.039-.10785.19789-.201a6.51755,6.51755,0,0,1,.87994-.32157,5.20707,5.20707,0,0,0,.98023-.36641,1.66368,1.66368,0,0,0,.79769-1.00547,2.76978,2.76978,0,0,0,.14615-.81135,1.68416,1.68416,0,0,0-.24759-.87736l-.00024-.00042a7.82835,7.82835,0,0,1-.6342-1.3163l-.00024-.00066-.00708-.06655.02147-.14591.02-.052.00689-.01217-.00006-.00024.00036-.00042a6.9556,6.9556,0,0,1,.60909-.64547c.14513-.1172.18674-.1235.255-.127a3.20121,3.20121,0,0,1,1.01177.41287l.011.00546q.21635.10683.431.21294l-.00066-.00036a2.392,2.392,0,0,0,1.06284.26869,1.79418,1.79418,0,0,0,1.13712-.39548,2.2748,2.2748,0,0,0,.7131-1.07819,13.37479,13.37479,0,0,1,.46269-1.35941l.11438-.12146.08585-.05209.02745-.01037.00528-.00132c.31623-.02458.56046-.042.73845-.04179a1.02431,1.02431,0,0,1,.32157.03561c.07494.032.1009.04275.19376.20749a6.97152,6.97152,0,0,1,.32492.86662c.05474.16241.111.31444.15731.46029a2.24426,2.24426,0,0,0,.71364,1.091,1.8179,1.8179,0,0,0,1.1515.40106,2.34531,2.34531,0,0,0,1.04024-.25982c.456-.22589.91782-.44974,1.37752-.68708l.00065-.00036.11888-.04124c.00726.00359.01325-.01469.10192.08075l.00018.00024c.26228.30382.5459.547.77724.79475a.711.711,0,0,1,.08459.11858,11.34561,11.34561,0,0,1-.592,1.18435,2.35439,2.35439,0,0,0-.40808,1.23958,1.80051,1.80051,0,0,0,.35173,1.05169,2.38567,2.38567,0,0,0,.861.78179l.00024.00006a12.01283,12.01283,0,0,0,1.4916.50993l-.00072-.00024c.0889.02884.15832.04305.19909.05623l.01912.007a.537.537,0,0,1,.14658.41239c.00276.20005-.05719.46581-.06.7779l.00611.13393-.059.10215Z"/><path class="cls-1" d="M25.36173,20.8563h-.0015l-.04874-.00035A4.19666,4.19666,0,0,0,21.155,24.92914l-.00072.07667a4.24056,4.24056,0,0,0,4.09567,4.18194h.00048l.06385.00048a4.21578,4.21578,0,0,0,4.2206-4.174l.0003-.05126A4.18494,4.18494,0,0,0,25.36173,20.8563Zm-.02482,6.44287H25.326A2.30146,2.30146,0,0,1,23.067,24.989v-.00234A2.25282,2.25282,0,0,1,25.35417,22.751l.01235.00012h.00174a2.25094,2.25094,0,0,1,2.257,2.25511l-.00012.027A2.29582,2.29582,0,0,1,25.33691,27.29917Z"/><polygon class="cls-1" points="25.358 20.856 25.36 20.856 25.364 20.856 25.358 20.856"/></svg>