<?xml version="1.0" encoding="utf-8"?>
<!-- Generator: Adobe Illustrator 21.0.0, SVG Export Plug-In . SVG Version: 6.00 Build 0)  -->
<svg version="1.1" id="Layer_1" xmlns="http://www.w3.org/2000/svg" xmlns:xlink="http://www.w3.org/1999/xlink" x="0px" y="0px"
	 viewBox="0 0 142.35327 145" style="enable-background:new 0 0 142.35327 145;" xml:space="preserve">
<style type="text/css">
	.st0{fill:none;stroke:#000000;stroke-width:3;stroke-miterlimit:10;}
	.st1{fill:none;stroke:#FFFFFF;stroke-width:2;stroke-miterlimit:10;}
</style>
<g>
	<path class="st1" d="M89.95255,9.54291c-0.48019,1.47636-0.82148,2.52568-1.41697,4.35654
		c1.59835-0.6012,2.58881-0.7241,3.2334-1.2617c2.17485-1.81392,3.53841-1.24181,4.24247,1.29377
		c0.75719,2.72699,1.36988,5.4941,1.89093,8.22691c0.9779,2.93012,1.95582,5.86025,3.19316,9.56775
		c2.82323,1.18356,6.45094,2.70437,10.26833,4.3047c-0.69685,0.32563-1.38853,0.83923-2.14603,0.96914
		c-2.94163,0.50451-2.90288,2.44472-1.79192,4.30139c1.64317,2.74612,2.28629,4.18252-1.78976,5.52942
		c-1.67831,0.55458-5.64212,2.59215-3.80043,6.49628c-2.00591,0.48666-4.60191-0.11426-2.95368,3.51261
		c0.60586,1.33314-0.81784,3.58863-1.47464,6.00873c1.51822,5.06178,9.76408,8.06546,6.92319,14.58288
		c3.49184,3.05866,6.39204,5.71321,9.42818,8.20192c1.20123,0.98466,2.73499,1.55355,4.05803,2.404
		c0.6636,0.42657,1.4345,0.9494,1.74292,1.61929c1.26595,2.7497,2.52933,5.52203,3.45811,8.39454
		c0.35255,1.09039-0.06281,2.50787-0.36672,3.71629c-0.76672,3.04855-1.66901,6.06301-2.57123,9.28483
		c1.87987,0.48263,3.02394,0.77634,4.28518,1.10014c0,1.28577,0.14979,2.52036-0.02934,3.70522
		c-0.45483,3.00844-0.27203,5.45012,2.71029,7.46011c1.29547,0.87309,1.46364,3.41879,2.16676,5.26501
		c-3.23203-0.98487-6.39463-1.84469-9.48472-2.91411c-4.85613-1.68059-7.55553-0.61238-10.10999,3.77025
		c-1.60707,2.75725-3.31195,5.59052-5.56079,7.78812c-1.24319,1.21481-3.82471,1.90468-5.58439,1.59387
		c-6.19486-1.09421-12.32516-2.61104-18.41029-4.22943c-1.53222-0.4075-3.07415-1.55145-4.15273-2.76486
		c-6.49264-7.30419-13.13017-14.50695-19.18573-22.16547c-7.76712-9.82312-17.32414-17.67107-27.14245-25.14052
		c-4.2052-3.19917-9.73398-4.65855-14.92234-7.0276c1.22626-1.92516,1.12789-3.59982-0.81788-3.87877
		c-0.20696-4.58216-0.22174-8.7131-0.64462-12.80182c-0.2418-2.33791,0.23544-3.53729,2.59784-4.37595
		c7.09773-2.51974,14.09609-5.3188,21.14259-7.98412c0.91292-0.34531,1.86529-0.64537,2.82608-0.79491
		c4.23771-0.65956,6.87835-3.47614,7.90831-7.81203c0.84034-3.53766,2.31381-6.92204,3.22223-10.44765
		c0.44519-1.7278,0.48096-3.6472,0.29102-5.43624c-0.54736-5.15553,1.21515-7.6878,6.27247-8.78728
		c0.91475-0.19887,1.7922-0.74771,2.58879-1.28138c3.74161-2.50669,7.21189-5.60502,11.26551-7.38307
		c2.12622-0.93263,5.4547-0.08948,7.87418,0.87248c2.6241,1.04332,4.68166,3.52226,7.88412,1.2594
		C87.56751,8.29004,88.96228,9.20832,89.95255,9.54291z"/>
</g>
</svg>
