<svg id="Capa_1" data-name="Capa 1" xmlns="http://www.w3.org/2000/svg" viewBox="0 0 50 50"><defs><style>.cls-1{fill:#8cc541;}</style></defs><path class="cls-1" d="M39.38039,25.48951h3.29a.94019.94019,0,0,0,0-1.88037h-3.29a.94019.94019,0,0,0,0,1.88037Z"/><path class="cls-1" d="M7.33059,25.38893h7.33008l1.71972,8a.93568.93568,0,0,0,1.83008,0l1.72022-8h1.50976l2.59033,14.4707a.93254.93254,0,0,0,.91993.76953v.25h.02978v-.25a.92572.92572,0,0,0,.8999-.82031l2.57032-20.10938.68994,4.9795a.9388.9388,0,0,0,.92969.81054h4.99023a.94019.94019,0,0,0,0-1.88037H30.89065l-1.5503-11.1499a.9443.9443,0,0,0-.92968-.7998h-.01026a.92138.92138,0,0,0-.91992.81982l-2.68017,21.02-1.64991-9.21a.93242.93242,0,0,0-.91992-.77h-3.0498a.93448.93448,0,0,0-.92041.73974l-.96,4.46-.96-4.46a.93355.93355,0,0,0-.91992-.73974H7.33059a.93483.93483,0,1,0,0,1.86963Z"/><path class="cls-1" d="M48.15041,24.64283a23.15723,23.15723,0,1,0,0,.5h.00629l.00006-.25v-.25ZM25,3.73561A21.1571,21.1571,0,1,1,10.03957,9.93232,21.08625,21.08625,0,0,1,25,3.73561Z"/></svg>