<svg id="Capa_1" data-name="Capa 1" xmlns="http://www.w3.org/2000/svg" viewBox="0 0 50 50"><defs><style>.cls-1{fill:#8cc541;}</style></defs><path class="cls-1" d="M14.61692,28.80483q0-1.19265,0-2.38531,0-2.73564.00088-5.47129c.00094-.71135.23307-.9378.95329-.93979.74926-.00208,1.49853-.00046,2.3101-.00046,0-1.01977.00326-2.00555-.00167-2.99129a.67522.67522,0,0,1,.50793-.76384.6999.6999,0,0,1,.9306.7224c.01548.8156.00462,1.63171.005,2.4476.00007.17374,0,.34748,0,.55306h1.51161q0-.25461,0-.51026c.00014-1.82377-.00252-3.64754.00211-5.47129.00141-.55642.23763-.8367.68713-.85043.47092-.01438.74712.28163.751.84783.00863,1.26377.003,2.52765.00313,3.79149.00007.71886,0,1.43772,0,2.19052h1.907V9.67073a11.66807,11.66807,0,0,0-4.217,1.06769c-.11625.053-.22907.1138-.34651.16388a.72017.72017,0,1,1-.62489-1.29218A13.01735,13.01735,0,0,1,23.37938,8.2927c.26686-.03119.53387-.06115.83913-.09606,0-.50674-.00095-.98392.00021-1.46108.00194-.79737.22007-1.01119,1.0346-1.01392.41333-.00138.82667-.00024,1.31-.00024,0-.49371.01731-.95123-.0152-1.40518-.0062-.08662-.20492-.22115-.32188-.22906a16.11644,16.11644,0,0,0-7.33662,1.08622A17.55287,17.55287,0,0,0,7.66332,19.375,17.38627,17.38627,0,0,0,10.961,32.88594a84.51308,84.51308,0,0,0,8.19909,9.32528c1.81246,1.82893,3.6873,3.596,5.535,5.39.08985.08723.18824.16566.31456.27608.97961-.92074,1.96191-1.80961,2.90537-2.73795,1.9496-1.91837,3.87839-3.85789,5.81625-5.7882a2.42327,2.42327,0,0,1,.34867-.32686.68332.68332,0,0,1,.88323.06613.60833.60833,0,0,1,.14422.8222,3.06377,3.06377,0,0,1-.50937.63092q-4.4154,4.30488-8.8426,8.59762c-.60414.585-.90878.57109-1.50848.01562A149.369,149.369,0,0,1,13.04066,37.77411,38.27284,38.27284,0,0,1,8.4661,31.685,18.99835,18.99835,0,0,1,6.06,20.65732,19.07347,19.07347,0,0,1,10.71282,9.277a18.40789,18.40789,0,0,1,14.87973-6.6677c.30088.00542.60194.0007.976.0007,0-.41315-.004-.82209.00089-1.23092.00862-.71707.24164-.95283.94846-.954q2.2557-.00381,4.51141-.00031c.76107.00082.98667.23068.98988,1.01176.00348.84787.01375,1.69607-.00574,2.54351a.59768.59768,0,0,0,.372.62891A19.11144,19.11144,0,0,1,43.80913,19.61929a19.487,19.487,0,0,1-3.76162,14.43565c-.8859,1.23205-1.85305,2.40643-2.80188,3.59211a.709.709,0,0,1-1.20817.0371c-.25534-.36623-.11458-.66868.13031-.99589,1.26328-1.68792,2.63071-3.31369,3.73785-5.09995A18.38052,18.38052,0,0,0,35.7961,7.85769c-.1102-.0885-.22837-.16708-.39528-.28843-.01413.18291-.03308.31535-.03326.44781-.00209,1.53579-.014,3.0718.01092,4.6072a1.36933,1.36933,0,0,0,.26972.7705,14.27178,14.27178,0,0,1-4.67589,21.52987,13.47033,13.47033,0,0,1-16.85494-4.10229,14.32957,14.32957,0,0,1,1.70187-19.014c.49629-.45483,1.07643-.388,1.28364.15548a.79655.79655,0,0,1-.32145.925,12.042,12.042,0,0,0-3.15622,4.63731,12.75442,12.75442,0,0,0,.67806,10.93c.06653.12585.14495.24542.21783.36793Zm11.06031,6.05844c.10591,0,.16865.00482.23046-.0007a12.122,12.122,0,0,0,7.69178-3.60282,1.02287,1.02287,0,0,0,.33174-.79419q-.01443-11.37123-.00741-22.74248v-.5248H25.67723ZM16.08452,21.46636c-.0112.10442-.02356.166-.0236.22767-.00175,2.98979-.0061,5.97959.00667,8.96932a.796.796,0,0,0,.22767.48617,11.81013,11.81013,0,0,0,5.70632,3.35279c.69936.17644,1.4205.26656,2.158.401V21.46636ZM35.38286,28.805A11.83021,11.83021,0,0,0,37.26178,22.254a11.80043,11.80043,0,0,0-1.87892-6.52915ZM28.03964,1.88758V5.686h3.50005V1.88758Z"/><path class="cls-1" d="M29.79608,12.47475c-.46351.00013-.9279.018-1.39028-.00484a.67914.67914,0,0,1-.72235-.724.67154.67154,0,0,1,.73929-.702q1.36631-.02229,2.73318-.00046a.66558.66558,0,0,1,.745.696.6729.6729,0,0,1-.7146.72995C30.72405,12.49321,30.25959,12.47461,29.79608,12.47475Z"/><path class="cls-1" d="M29.78674,23.66772c-.46374-.00026-.92784.01093-1.39114-.00352a.71383.71383,0,0,1-.0124-1.42752q1.41464-.029,2.83018.00081a.714.714,0,0,1-.03547,1.4275C30.71455,23.67832,30.2505,23.668,29.78674,23.66772Z"/><path class="cls-1" d="M29.83124,27.84156c.44753-.00067.89565-.015,1.34242.00325a.71312.71312,0,1,1-.00524,1.42583c-.92661.01866-1.85425.01963-2.78073-.0026a.67133.67133,0,0,1-.70422-.73877.66408.66408,0,0,1,.70952-.6826C28.87165,27.82694,29.35176,27.84223,29.83124,27.84156Z"/><path class="cls-1" d="M29.76682,18.081c-.44779-.00008-.89607.01314-1.34322-.00368a.69812.69812,0,0,1-.73975-.75933.685.685,0,0,1,.767-.67466q1.34328-.01185,2.68672.00006a.68036.68036,0,0,1,.7634.67784.69731.69731,0,0,1-.7429.7563C30.69484,18.09393,30.2306,18.08105,29.76682,18.081Z"/><path class="cls-1" d="M20.94684,30.30292c0-.2388-.01124-.47824.00245-.71624a.69576.69576,0,0,1,.68311-.71545.66518.66518,0,0,1,.7261.61914,10.19447,10.19447,0,0,1,.00062,1.668.66482.66482,0,0,1-.72424.621.692.692,0,0,1-.68536-.71239C20.93507,30.813,20.94686,30.55763,20.94684,30.30292Z"/><path class="cls-1" d="M17.78,30.32632c0-.25469-.00972-.50984.00216-.764a.66318.66318,0,0,1,.65938-.68523.642.642,0,0,1,.743.59058,9.53948,9.53948,0,0,1,.00018,1.7144.64142.64142,0,0,1-.7418.59137.66122.66122,0,0,1-.66059-.68318C17.76992,30.83619,17.78,30.581,17.78,30.32632Z"/><path class="cls-1" d="M17.77892,25.144c0-.25464-.0077-.50957.00174-.76386a.66861.66861,0,0,1,.64578-.69976.63484.63484,0,0,1,.75242.57471,9.09725,9.09725,0,0,1-.00306,1.75973.6294.6294,0,0,1-.76493.553.64858.64858,0,0,1-.62689-.66016c-.01631-.25357-.00309-.509-.00309-.76367Z"/><path class="cls-1" d="M20.94939,25.1013c-.00005-.25463-.01639-.51055.00366-.76359a.66293.66293,0,0,1,.68374-.66008.63031.63031,0,0,1,.70975.57241,9.53257,9.53257,0,0,1-.0008,1.75994.63084.63084,0,0,1-.76158.5585.64722.64722,0,0,1-.63129-.6558C20.93509,25.64332,20.94944,25.37184,20.94939,25.1013Z"/></svg>