<?xml version="1.0" encoding="UTF-8"?>
<svg width="151px" height="86px" viewBox="0 0 151 86" version="1.1" xmlns="http://www.w3.org/2000/svg" xmlns:xlink="http://www.w3.org/1999/xlink">
    <!-- Generator: Sketch 52.1 (67048) - http://www.bohemiancoding.com/sketch -->
    <title>Group</title>
    <desc>Created with Sketch.</desc>
    <g id="Page-2" stroke="none" stroke-width="1" fill="none" fill-rule="evenodd">
        <g id="Icons-KEA-01" transform="translate(-415.000000, -554.000000)" stroke="#FFFFFF" stroke-width="3">
            <g id="Group" transform="translate(417.000000, 555.000000)">
                <path d="M20,25.7 C29.9,25.7 39.8,25.7 49.7,25.7 C55.8,25.7 62,25.7 68.1,25.7 C69.6,25.7 71.5,26 73,25.7 C74,25.5 74.1,25.4 75,24.4 C77.2,22.1 79.5,19.7 81.7,17.4 C82.9,16.2 84.7,13.4 86.2,12.7 C86.8,12.4 88.1,12.7 88.8,12.7 C89.7,12.7 92.1,12.2 92.9,12.7 C94,13.4 95,17.2 95.6,18.5 C99.9,27.9 102.8,37.7 105.9,47.6 C107.2,51.7 108.5,54.7 113.1,56.3 C119.2,58.4 126.7,57.5 133.1,57.4 C137,57.4 140.8,57.4 144.7,57.3" id="Path"></path>
                <path d="M99,25.7 C115.5,25.3 133.4,35.7 143,48.7 C147.1,54.3 148.8,62.6 142.4,67.2 C136.9,71.2 128.3,70.9 122,70.9 C108.7,70.9 95.3,70.9 82,70.9 C76.5,70.9 71.4,68.8 67.6,64.8 C65,62.1 63.4,58.7 61.7,55.5 C60,52.4 58.2,49.3 56.7,46.1 C53.5,39.5 48.3,37.1 41.4,36 C34.3,34.9 27.2,33.8 20.1,32.7" id="Path"></path>
                <path d="M69.2,83.2 C89.1,83.2 109,82.8 129,83.2 C135.3,83.3 144.2,82.7 146.8,75.7" id="Path"></path>
                <path d="M102,71 L102,83.2" id="Path"></path>
                <path d="M127.5,71 L127.5,83.2" id="Path"></path>
                <path d="M83.4,37.5 L83.4,60.2" id="Path"></path>
                <path d="M94.7,48.3 L72,48.3" id="Path"></path>
                <path d="M30.5,0.5 L148.7,0.5" id="Path"></path>
                <path d="M89.6,12.7 L89.6,0.5" id="Path"></path>
                <path d="M0,28.7 C0,23.4 4.4,18.9 9.8,18.9 C15.1,18.9 19.6,23.3 19.6,28.7 C19.6,33.9 15.4,38.2 10.2,38.4 C4.6,38.7 0,34.2 0,28.7 Z" id="Path"></path>
                <path d="M3.7,21.1 C2.7,18.2 1.7,15.3 0.7,12.5 C0.5,12 -0.2,10.6 0.1,10.2 C0.5,9.5 3.8,8.8 4.6,8.5 C5.3,8.2 6.3,7.6 6.9,7.9 C7.7,8.3 8.5,10.9 8.9,11.6 C10.3,14.2 11.7,16.8 13,19.4" id="Path"></path>
                <path d="M5.4,37.5 C5.4,39.6 5.4,41.7 5.4,43.8 C5.4,44.2 5.1,46.1 5.4,46.4 C5.7,46.7 7.6,46.4 8.1,46.4 C10.4,46.4 10.3,45.2 11.3,43.1 C12.2,41.2 13.1,39.3 14,37.4" id="Path"></path>
            </g>
        </g>
    </g>
</svg>