<svg id="Capa_1" data-name="Capa 1" xmlns="http://www.w3.org/2000/svg" viewBox="0 0 50 50"><defs><style>.cls-1{fill:#8cc541;}</style></defs><path class="cls-1" d="M36.77992,48.07237c1.13556,0,2.22149-.00654,3.30729.00277.53962.00463.94139.40734.778.83465a1.508,1.508,0,0,1-.60794.58254c-.11236.07438-.31138.02025-.47116.02026q-12.97416.00058-25.94831.00033c-.11192,0-.224.0036-.33572-.00109a.73691.73691,0,0,1-.79462-.71741.72435.72435,0,0,1,.79007-.71891c1.00713-.01009,2.01444-.00287,3.02167-.00452.09422-.00015.18841-.0129.32226-.02271C18.053,38.1199,19.26361,28.19962,20.48415,18.198c-.58875.16382-1.11815.30679-1.645.45844-3.86471,1.11238-7.72726,2.23237-11.59588,3.33095-.38522.1094-.47607.28574-.47557.66541q.017,12.82957.00841,25.6592c0,.17581.0081.35278-.00861.5272a.66619.66619,0,0,1-.68494.663.66248.66248,0,0,1-.71571-.57645,2.72263,2.72263,0,0,1-.03094-.57208q-.00193-12.63777-.00112-25.27552v-.62731c-.29522-.04951-.549-.0754-.79425-.13593a3.36992,3.36992,0,0,1-2.57914-3.13852,3.31926,3.31926,0,0,1,2.32543-3.32622c1.83032-.5631,3.67615-1.07608,5.51772-1.60217a.72584.72584,0,1,1,.37892,1.38921c-1.77711.51918-3.55971,1.01967-5.33512,1.54454a1.90159,1.90159,0,0,0-1.35787,2.42743,1.92756,1.92756,0,0,0,2.49273,1.24971Q11.0928,19.39807,16.1986,17.924q9.616-2.7692,19.23364-5.5326c.40058-.11461.56211-.27014.54854-.70958-.03487-1.12894-.01165-2.25968-.01165-3.46483-.83069.23738-1.59192.45362-2.3524.67243q-10.28347,2.95889-20.5668,5.91824a3.36289,3.36289,0,0,1-.37009.09706.69057.69057,0,0,1-.85048-.50446.67816.67816,0,0,1,.4838-.864c.86844-.27039,1.74572-.51248,2.61985-.76454Q25.21523,9.80682,35.50029,6.8519c.354-.10136.47745-.23608.47813-.60972.00345-1.89156-.22739-1.37113,1.2924-2.51911,1.31331-.992,2.64528-1.95932,3.96811-2.93876A1.08179,1.08179,0,0,1,42.7467.7648c1.5812,1.16762,3.15506,2.34532,4.74564,3.5a1.197,1.197,0,0,1,.54792,1.08526c-.02174,1.96617-.01229,3.93272-.00653,5.89911.00123.42212-.09421.767-.55751.88072-.51139.12554-.88269-.24276-.88481-.89348-.00552-1.69461-.02888-3.38992.01324-5.0835A1.26886,1.26886,0,0,0,45.989,4.9391c-1.33307-.93648-2.62872-1.92621-3.977-2.92318-.46929.3445-.94207.69-1.41315,1.03772-.95138.70231-1.911,1.39406-2.8443,2.1197a.90643.90643,0,0,0-.32813.61293q-.03123,4.628-.00493,9.25636a.7397.7397,0,0,0,.2188.52594c1.43842,1.09029,2.8942,2.15767,4.36286,3.24434,1.47655-1.09138,2.94327-2.16847,4.39648-3.26349a.66361.66361,0,0,0,.1813-.44743c.02589-.398-.00571-.79962.01533-1.19822a.71089.71089,0,0,1,.75469-.75268.70349.70349,0,0,1,.67631.77317c.01224.52729-.01913,1.05636.01075,1.58226a1.11257,1.11257,0,0,1-.53325,1.04354c-1.48745,1.0792-2.95539,2.18527-4.44191,3.26577a.7209.7209,0,0,0-.3427.66893c.01783,1.37465.00717,2.74967.00862,4.12456.00015.14067.01252.28133.02209.48218.36752,0,.71436-.0108,1.06027.00245.56019.02147.826.27891.82784.83537q.01094,3.40521,0,6.81047a.73931.73931,0,0,1-.82511.83779q-1.82249.01526-3.64516-.00077a.71932.71932,0,0,1-.79338-.81344q-.00931-3.4292,0-6.85842a.723.723,0,0,1,.79707-.81026c.34949-.01558.70023-.00294,1.087-.00294.01062-.17678.02607-.31589.02625-.455.00181-1.39087-.007-2.78183.00774-4.17254a.68539.68539,0,0,0-.32242-.63032c-1.4979-1.09209-2.97864-2.20777-4.48-3.29495a1.13159,1.13159,0,0,1-.52723-1.04858c.02344-.56816.0056-1.138.0056-1.76284-1.06673.30552-2.06214.58091-3.04747.88857-.09327.02912-.18724.26776-.173.39723.1663,1.50834.35179,3.01458.53521,4.521q.59659,4.89981,1.196,9.79928.60426,4.9464,1.209,9.89274.50169,4.11483,1.00068,8.23C36.71279,47.64573,36.74478,47.83406,36.77992,48.07237Zm-3.09259-.02486c-.117-.09569-.17-.14646-.22986-.18694-2.131-1.44032-4.26668-2.87382-6.3889-4.327-.24908-.17055-.39562-.08426-.58694.04529q-3.11535,2.10956-6.23292,4.21586c-.0948.06419-.1768.1473-.30166.25277Zm-8.16966-5.55233-6.04929-4.07876-1.08233,8.89366Zm2.57735.00116,7.12333,4.80979-1.08442-8.88742C32.08444,39.80258,30.11869,41.12992,28.095,42.49634Zm4.499-6.068a2.5458,2.5458,0,0,0-.18919-.20561c-1.7754-1.4376-3.55505-2.87-5.324-4.31547a.37664.37664,0,0,0-.572.01774q-2.59949,2.12056-5.21479,4.22171a1.31322,1.31322,0,0,1-.34048.141l.14281.14061Zm-6.936-5.66072L20.874,26.904l-1.04379,8.5739Zm1.20339-10.57179L22.174,24.75091h9.32176Zm6.91307,15.27894-1.04512-8.568-4.77793,3.862ZM32.274,37.93438H21.33737c1.81462,1.22491,3.53324,2.38978,5.262,3.53946a.46354.46354,0,0,0,.41569-.00374C28.74365,40.32074,30.46241,39.15654,32.274,37.93438Zm-1.08134-11.6425H22.413l4.39336,3.54853Zm-3.31857-7.30361,4.42168,4.36161-.94845-7.76658Zm-6.54839,4.29581L25.76481,18.92c-.21007-.19461-.43516-.39651-.65277-.60619-.37846-.36467-.70253-.93841-1.14175-1.04541-.45946-.11193-1.02278.24769-1.55025.35364a.55479.55479,0,0,0-.49583.57934c-.11334,1.04632-.25182,2.08989-.3766,3.135C21.46732,22.00893,21.394,22.68233,21.32572,23.28408Zm21.85183,8.84049v-5.5583H40.84778v5.5583ZM26.73679,17.82746l2.1456-2.06126-3.29129.95333Z"/><path class="cls-1" d="M39.37352,10.38133a2.63372,2.63372,0,1,1,2.58759,2.66675A2.637,2.637,0,0,1,39.37352,10.38133Zm1.44165.03069a1.208,1.208,0,0,0,1.18791,1.193,1.22047,1.22047,0,0,0,1.19321-1.19276,1.19056,1.19056,0,0,0-2.38112-.00029Z"/><path class="cls-1" d="M5.34728,19.78013a.69789.69789,0,0,1-.74148-.70537c-.00291-.46349.4074-.78881,1.01127-.80182a.73441.73441,0,0,1,.7483.71419C6.3689,19.4419,5.94321,19.77346,5.34728,19.78013Z"/></svg>