<svg id="Capa_1" data-name="Capa 1" xmlns="http://www.w3.org/2000/svg" viewBox="0 0 50 50"><defs><style>.cls-1{fill:#8cc541;}</style></defs><path class="cls-1" d="M2.31924,19.51778a.84089.84089,0,0,0,.947.16889l.48846-.22544v28.05H2.073V43.30714H.39136v5.045a.84084.84084,0,0,0,.84083.84083H7.95878a.84085.84085,0,0,0,.84083-.84083V43.30714H7.118v4.20413H5.43631V18.68508l8.35228-3.8549L22.4601,20.145,15.73561,43.30714H13.00373a.8408.8408,0,0,0-.78068.52855L10.5414,48.03981a.84079.84079,0,0,0,.78068,1.15311H47.47753a.84083.84083,0,0,0,.84082-.84083V42.81463l1.43542-1.43541A.84093.84093,0,0,0,50,40.78467V36.58055a.84082.84082,0,0,0-.84082-.84082H44.95505V34.05808h.00011a.84094.84094,0,0,0,.84072-.84083V29.854a.84075.84075,0,0,0-.33635-.67264L42.587,27.02687l.56667-.94446A.8408.8408,0,0,0,42.872,24.933L17.15122,9.16861l-.79066-6.32532a.84094.84094,0,0,0-.83436-.73654H11.32208a.84077.84077,0,0,0-.687.356L.54522,16.75672a.84088.84088,0,0,0,.09237,1.07941ZM31.184,34.484l2.56156,8.82313H18.9673ZM17.85581,42.03557l2.31607-7.97749h8.72971Zm2.80427-9.65914,1.95288-6.7266H28.6192l1.9529,6.7266Zm2.44111-8.40825,1.17186-4.0364a1.3985,1.3985,0,0,1,2.68608.00005L28.131,23.96818ZM12.564,47.51127l1.009-2.52248H37.65922l1.009,2.52248ZM43.2734,41.6255H40.75093V39.52344l2.52247-1.89183Zm3.3633,5.88577H40.75093V43.30714H43.2734v2.52248h1.68165V43.30714H46.6367Zm1.68165-10.0899v3.015L47.12922,41.6255H44.95505V37.42137ZM42.76893,35.9079l-3.3633,2.52247a.84076.84076,0,0,0-.33635.67265v4.883l-.06014-.15037a.84082.84082,0,0,0-.78068-.52855H35.49657L30.13832,24.851l9.31935,5.71184,3.81573,2.54383v2.63305A.8406.8406,0,0,0,42.76893,35.9079Zm1.3453-5.63353v1.37178l-3.07062-2.047.67355-1.12257ZM16.65134,10.83463,41.283,25.93148l-1.65722,2.762L29.44173,22.45169,28.57407,19.463A3.07808,3.07808,0,0,0,23.09213,18.56l-8.098-4.9633ZM11.75778,3.7884h3.02613l.71283,5.702-2.2399,3.733L3.09376,17.91414l-.7662-.76631Z"/></svg>