<?xml version="1.0" encoding="UTF-8"?>
<svg width="97px" height="96px" viewBox="0 0 97 96" version="1.1" xmlns="http://www.w3.org/2000/svg" xmlns:xlink="http://www.w3.org/1999/xlink">
    <!-- Generator: Sketch 52.1 (67048) - http://www.bohemiancoding.com/sketch -->
    <title>Group</title>
    <desc>Created with Sketch.</desc>
    <g id="Page-2" stroke="none" stroke-width="1" fill="none" fill-rule="evenodd">
        <g id="Icons-KEA-01" transform="translate(-750.000000, -390.000000)" stroke="#FFFFFF" stroke-width="3">
            <g id="Group" transform="translate(752.000000, 391.000000)">
                <path d="M93.5,92.5 C93.5,93 93.1,93.4 92.6,93.4 L1.2,93.4 C0.7,93.4 0.3,93 0.3,92.5 L0.3,81.7 C0.3,81.2 0.7,80.8 1.2,80.8 L92.6,80.8 C93.1,80.8 93.5,81.2 93.5,81.7 L93.5,92.5 Z" id="Path"></path>
                <path d="M18.1,70.3 C18.1,69.8 17.7,69.4 17.2,69.4 L6.2,69.4 C5.7,69.4 5.3,69.8 5.3,70.3 L5.3,80 C5.3,80.5 5.7,80.9 6.2,80.9 L17.2,80.9 C17.7,80.9 18.1,80.5 18.1,80 L18.1,70.3 Z" id="Path"></path>
                <path d="M88.5,70.3 C88.5,69.8 88.1,69.4 87.6,69.4 L76.6,69.4 C76.1,69.4 75.7,69.8 75.7,70.3 L75.7,80 C75.7,80.5 76.1,80.9 76.6,80.9 L87.6,80.9 C88.1,80.9 88.5,80.5 88.5,80 L88.5,70.3 Z" id="Path"></path>
                <path d="M28.6,80.8 L39.8,29.5" id="Path"></path>
                <path d="M55.1,36 L63.8,80.3" id="Path"></path>
                <path d="M12.2,69.4 L12.2,25.2" id="Path"></path>
                <path d="M18.1,18.3 L75.8,46.7" id="Path"></path>
                <path d="M22.1,8.3 L75.8,34.7" id="Path"></path>
                <path d="M82,56.5 C81.7,56.8 81.1,56.8 80.8,56.5 L76,52.3 C75.7,52 75.4,51.4 75.4,50.9 L75.4,30.3 C75.4,29.8 75.8,29.4 76.3,29.4 L86.3,29.4 C86.8,29.4 87.2,29.8 87.2,30.3 L87.2,50.7 C87.2,51.2 86.9,51.8 86.6,52.1 L82,56.5 Z" id="Path"></path>
                <path d="M81.4,57.1 L81.4,69.5" id="Path"></path>
                <path d="M36,46.7 L56.9,46.7" id="Path"></path>
                <path d="M32.3,63.7 L60.8,63.7" id="Path"></path>
                <path d="M26.9,1.8 L12.7,26.6 C12.7,26.6 1.3,17.2 7.6,7 C13.9,-3.4 26.9,1.8 26.9,1.8 Z" id="Path"></path>
            </g>
        </g>
    </g>
</svg>