<?xml version="1.0" encoding="UTF-8"?>
<svg width="106px" height="98px" viewBox="0 0 106 98" version="1.1" xmlns="http://www.w3.org/2000/svg" xmlns:xlink="http://www.w3.org/1999/xlink">
    <!-- Generator: Sketch 52.1 (67048) - http://www.bohemiancoding.com/sketch -->
    <title>Group</title>
    <desc>Created with Sketch.</desc>
    <g id="Page-2" stroke="none" stroke-width="1" fill="none" fill-rule="evenodd">
        <g id="Icons-KEA-01" transform="translate(-909.000000, -391.000000)" stroke="#FFFFFF" stroke-width="3">
            <g id="Group" transform="translate(910.000000, 392.000000)">
                <path d="M60.4,61.4 L81.9,61.3 C100.1,59.4 101,55 101,55 C100.5,50 82,48.7 82,48.7 L21.6,48.7 L13.2,50.6 L13.2,53.3 C13.2,53.3 22.9,62.2 43.8,61.4" id="Path"></path>
                <polyline id="Path" points="66.2 57.3 41.4 74.9 31.1 74.9 47.8 57.3"></polyline>
                <polyline id="Path" points="63.5 48.7 46 36.3 34.9 36.3 47.6 48.7"></polyline>
                <polyline id="Path" points="30.2 48.7 16.7 36.3 11.1 36.3 17.1 49.7"></polyline>
                <path d="M59.6,80.7 L90.3,80.7" id="Path"></path>
                <path d="M53.6,80.7 L56.9,80.7" id="Path"></path>
                <path d="M15.4,20.9 L38.5,20.9" id="Path"></path>
                <path d="M9.4,20.9 L12.7,20.9" id="Path"></path>
                <path d="M21.8,13.4 L45,13.4" id="Path"></path>
                <path d="M15.4,13.4 L18.6,13.4" id="Path"></path>
                <path d="M92,31.7 L66,31.7 C60.1,31.7 55.3,26.9 55.3,20.9 C55.3,15 60.1,10.1 66,10.1 C66.6,10.1 67.2,10.1 67.7,10.2 C69.8,4.6 75.2,0.8 81.3,0.8 C87.4,0.8 92.9,4.7 95,10.4 C99.5,11.7 102.8,15.9 102.8,20.7 C102.7,26.9 97.9,31.7 92,31.7 Z" id="Fill-1_1_"></path>
                <path d="M28,94.7 L9.7,94.7 C4.7,94.7 0.6,90.5 0.6,85.4 C0.6,80.8 3.9,77 8.2,76.3 C10.3,72.4 14.4,69.9 18.8,69.9 C24.6,69.9 29.5,74.1 30.7,79.7 C33.6,80.8 35.5,83.7 35.5,86.9 C35.6,91.3 32.2,94.7 28,94.7 Z" id="Fill-3_1_"></path>
            </g>
        </g>
    </g>
</svg>