<svg id="Capa_1" data-name="Capa 1" xmlns="http://www.w3.org/2000/svg" viewBox="0 0 50 50"><defs><style>.cls-1{fill:#8cc541;}</style></defs><g id="_021---Mountain-Rescue" data-name="021---Mountain-Rescue"><path id="Shape" class="cls-1" d="M47.64647,43.52558a1.66684,1.66684,0,0,0-2.85029-.25l-.96676,1.25012-5.55056-9.51762a1.66684,1.66684,0,0,0-2.79195-.18336l-1.08344,1.38348c-5.32554-9.61764,3.42535,6.05894-7.9258-14.35145a1.66684,1.66684,0,0,0-2.9503,0L15.65158,35.92481,14.4848,34.633a1.66684,1.66684,0,0,0-2.70861.28336l-5.60056,9.6093-.9751-1.27513a1.66683,1.66683,0,0,0-2.84195.275L.19169,47.776a1.66684,1.66684,0,0,0,1.47515,2.41692H48.33821A1.66684,1.66684,0,0,0,49.82169,47.776ZM25.00253,22.69015l2.9753,5.38387-1.20012,1.28347-.54172-.56673a1.73352,1.73352,0,0,0-2.50025,0l-.52506.475L22.12724,27.824ZM1.66684,48.52608,3.8754,44.27566l.96676,1.26679a1.66683,1.66683,0,0,0,2.767-.175l5.64223-9.61763L24.81918,48.52608Zm25.39423,0L16.835,37.225l4.40877-7.86746.64174.83342a1.71684,1.71684,0,0,0,1.27513.69173c.83341.05,1.22512-.43337,1.86685-1.0251l.53339.55839a1.66683,1.66683,0,0,0,2.50025,0l.83342-.83342,7.92579,14.30978a.83176.83176,0,1,0,1.45848-.80008l-2.9503-5.33387,1.55849-1.9502,5.50056,9.551a1.66682,1.66682,0,0,0,2.76694.175L46.163,44.259l2.17522,4.2671Z"/><path id="Shape-2" data-name="Shape" class="cls-1" d="M4.20877,18.52306H6.66735V20.1899H4.1671a.83342.83342,0,1,0,0,1.66683H10.001v8.33418a.83342.83342,0,0,0,1.66683,0V21.85673h6.66734a.83342.83342,0,1,0,0-1.66683H15.83494V18.52306a7.55075,7.55075,0,0,0,7.35074-6.40064.55.55,0,0,1,.44171-.48338l15.20153-1.14178A2.17524,2.17524,0,0,0,40.83746,8.322V2.48812A1.5085,1.5085,0,0,0,39.33731,1.0213h-.95844a1.50848,1.50848,0,0,0-1.45014,1.10845L35.837,6.02181H15.00152V3.52155H26.66936a.83342.83342,0,1,0,0-1.66683H15.00152V1.0213a.83342.83342,0,0,0-1.66684,0v.83342H1.66684a.83342.83342,0,0,0,0,1.66683H13.33468V6.02181H8.25917A8.28416,8.28416,0,0,0,0,14.306a4.20876,4.20876,0,0,0,4.20876,4.2171ZM8.37585,20.1899V18.52306h1.66684V20.1899Zm3.33367,0V18.52306h2.50025V20.1899ZM35.9953,7.68864A1.50849,1.50849,0,0,0,37.44545,6.5802l1.05844-3.89206h.66681L39.17062,8.322a.49171.49171,0,0,1-.46671.5L23.47737,9.9722a2.20855,2.20855,0,0,0-1.93352,1.88353,5.90894,5.90894,0,0,1-5.83393,5.0005H4.20877A2.50025,2.50025,0,0,1,1.70852,14.356H7.18407a2.83363,2.83363,0,0,0,2.817-2.842V7.68864Zm-27.73612,0c.075,0,.075-.43338.075,3.82539a1.16677,1.16677,0,0,1-1.15011,1.17511H1.8752A6.60065,6.60065,0,0,1,8.25918,7.68864Z"/><path id="Shape-3" data-name="Shape" class="cls-1" d="M14.1681,11.02231h-.83341a.83342.83342,0,1,0,0,1.66683h.83341v.83342a.83342.83342,0,1,0,1.66684,0v-.83342h.83342a.83342.83342,0,0,0,0-1.66683h-.83342v-.83342a.83342.83342,0,1,0-1.66684,0Z"/></g></svg>