<svg id="Capa_1" data-name="Capa 1" xmlns="http://www.w3.org/2000/svg" viewBox="0 0 50 50"><defs><style>.cls-1{fill:#8cc541;}</style></defs><path class="cls-1" d="M18.65148,29.76139h4.76139a.79335.79335,0,0,0,.79356-.79356V25a.79335.79335,0,0,0-.79356-.79357H18.65148A.79336.79336,0,0,0,17.85791,25v3.96783A.79336.79336,0,0,0,18.65148,29.76139Zm.79356-3.96782H22.6193v2.38069H19.445Z"/><path class="cls-1" d="M23.41287,36.90348a.79335.79335,0,0,0,.79356-.79357V32.14209a.79335.79335,0,0,0-.79356-.79357H18.65148a.79336.79336,0,0,0-.79357.79357v3.96782a.79336.79336,0,0,0,.79357.79357ZM19.445,32.93565H22.6193v2.3807H19.445Z"/><path class="cls-1" d="M26.58713,29.76139h4.76139a.79336.79336,0,0,0,.79357-.79356V25a.79336.79336,0,0,0-.79357-.79357H26.58713A.79335.79335,0,0,0,25.79357,25v3.96783A.79335.79335,0,0,0,26.58713,29.76139Zm.79357-3.96782H30.555v2.38069H27.3807Z"/><path class="cls-1" d="M26.58713,36.90348h4.76139a.79336.79336,0,0,0,.79357-.79357V32.14209a.79336.79336,0,0,0-.79357-.79357H26.58713a.79335.79335,0,0,0-.79356.79357v3.96782A.79335.79335,0,0,0,26.58713,36.90348Zm.79357-3.96783H30.555v2.3807H27.3807Z"/><path class="cls-1" d="M48.807,32.14209H35.31635V21.82574a.79336.79336,0,0,0-.79357-.79357H15.47722a.79336.79336,0,0,0-.79357.79357v3.96783H1.193a.79335.79335,0,0,0-.79356.79356V48.807a.79335.79335,0,0,0,.79356.79356H48.807a.79335.79335,0,0,0,.79356-.79356V32.93565A.79335.79335,0,0,0,48.807,32.14209Zm-.79357,1.58713v1.58713h-12.697V33.72922ZM36.90348,44.83913H35.31635V43.252h7.14209a.79336.79336,0,0,0,.79356-.79356V39.28417a.79336.79336,0,0,0-.79356-.79356H35.31635V36.90348h9.52278V48.01339H37.697V45.6327A.79336.79336,0,0,0,36.90348,44.83913Zm-1.58713-3.17426V40.07774h6.34852v1.58713ZM16.27078,22.6193H33.72922V44.83913H28.96783v-5.555a.79336.79336,0,0,0-.79357-.79356H21.82574a.79336.79336,0,0,0-.79357.79356v5.555H16.27078ZM22.6193,44.83913V40.07774h1.58713v4.76139Zm3.17427-4.76139H27.3807v4.76139H25.79357Zm-12.697,4.76139a.79336.79336,0,0,0-.79356.79357v2.38069H5.16087V30.555h9.52278v1.58713H7.54156a.79335.79335,0,0,0-.79356.79356v3.17426a.79336.79336,0,0,0,.79356.79357h7.14209v1.58713H7.54156a.79336.79336,0,0,0-.79356.79356v3.17427a.79336.79336,0,0,0,.79356.79356h7.14209v1.58713Zm1.58713-3.17426H8.33513V40.07774h6.34852Zm0-6.34852H8.33513V33.72922h6.34852Zm0-7.93565v1.58713H1.98661V27.3807ZM1.98661,30.555H3.57374V48.01339H1.98661ZM34.52278,48.01339H13.89009V46.42626H36.10991v1.58713Zm11.90348,0V36.90348h1.58713V48.01339Z"/><path class="cls-1" d="M48.807.39948H45.6327a.79335.79335,0,0,0-.79357.79356v.79357H30.555V1.193a.79335.79335,0,0,0-.79357-.79356H20.23861A.79335.79335,0,0,0,19.445,1.193v.79357H5.16087V1.193A.79335.79335,0,0,0,4.3673.39948H1.193A.79335.79335,0,0,0,.39948,1.193V7.54156a.79336.79336,0,0,0,.79356.79357H4.3673a.79336.79336,0,0,0,.79357-.79357V6.748H19.445v.79356a.79336.79336,0,0,0,.79357.79357h.79356v2.3807a.79336.79336,0,0,0,.79357.79356h2.38069V13.2426a2.37749,2.37749,0,0,0-1.58713,2.23462v1.58713h1.58713V15.47722a.79357.79357,0,1,1,1.58714,0v1.58713H27.3807V15.47722a2.37749,2.37749,0,0,0-1.58713-2.23462V11.50939h2.38069a.79336.79336,0,0,0,.79357-.79356V8.33513h.79356a.79336.79336,0,0,0,.79357-.79357V6.748H44.83913v.79356a.79336.79336,0,0,0,.79357.79357H48.807a.79336.79336,0,0,0,.79356-.79357V1.193A.79335.79335,0,0,0,48.807.39948ZM3.57374,6.748H1.98661V1.98661H3.57374ZM5.16087,5.16087V3.57374H19.445V5.16087ZM27.3807,9.92226H22.6193V8.33513h4.7614ZM28.96783,6.748H21.03217V1.98661h7.93566ZM30.555,5.16087V3.57374H44.83913V5.16087ZM48.01339,6.748H46.42626V1.98661h1.58713Z"/></svg>