<svg id="Capa_1" data-name="Capa 1" xmlns="http://www.w3.org/2000/svg" viewBox="0 0 50 50"><defs><style>.cls-1{fill:#8cc541;}</style></defs><path class="cls-1" d="M6.57866,26.23158a.58917.58917,0,0,0-.30453-.80933,2.66909,2.66909,0,0,1-.9-3.53775,18.39205,18.39205,0,0,1,1.00112-1.76668,1.17648,1.17648,0,0,1,2.085.0088,6.41076,6.41076,0,0,1,1.2966,2.9208,2.50132,2.50132,0,0,1-1.01,2.26044c-.5715.424-.57654.41716-.50739,1.12655l5.48792,1.41523c0-.442.0119-.89731-.01043-1.351-.00427-.08674-.12793-.19781-.22274-.24543a3.62186,3.62186,0,0,1-1.6914-5.05955c.467-.91813.98376-1.81339,1.52093-2.69279a1.32691,1.32691,0,0,1,2.37232-.01368c.55574.904,1.09128,1.8246,1.56816,2.7719a3.6156,3.6156,0,0,1-1.7035,4.99449.49225.49225,0,0,0-.2339.372,13.86381,13.86381,0,0,0,.00215,1.57051.55226.55226,0,0,0,.2781.38774c.85631.38335,1.73462.71784,2.58882,1.10554.85411.38766,1.68847.81885,2.57021,1.24989a6.347,6.347,0,0,1,10.96143-.361,1.06374,1.06374,0,0,0,.17171-.04238c.94642-.40823,1.88839-.82711,2.84035-1.22192a.3977.3977,0,0,0,.3011-.43638c-.01554-.63147.00807-1.26409-.01686-1.895a.46369.46369,0,0,0-.24576-.35052A4.178,4.178,0,0,1,32.602,20.36561c.61247-.97844,1.18913-1.97956,1.81275-2.95068a1.55563,1.55563,0,0,1,2.80591-.00936c.66436,1.03636,1.31629,2.08293,1.92171,3.15436a4.15829,4.15829,0,0,1-1.627,5.80473,8.90264,8.90264,0,0,1-.877.35874v1.86807c.14991-.03823.29246-.06715.43034-.11084a34.43761,34.43761,0,0,1,7.34833-1.5537c1.04062-.09276,2.09185-.09131,3.138-.08653a.77694.77694,0,0,1,.85924.77843c.00831.475-.37075.75906-.9384.79193-1.64249.0951-3.3007.1047-4.92144.35257a35.44405,35.44405,0,0,0-11.54556,4.00431c-2.08318,1.12819-4.088,2.40013-6.1519,3.56523-.83969.474-1.74249.83626-2.69488,1.28636.69113.28652,1.32034.60812,1.9857.81138,1.74862.53417,3.50929,1.03055,5.27509,1.505a1.26932,1.26932,0,0,0,.85875-.11045,27.266,27.266,0,0,1,9.84771-3.24843c.13488-.01708.26677-.0578.4332-.09488a5.68334,5.68334,0,0,0-.01168-.84223.62577.62577,0,0,0-.25757-.41028,2.25336,2.25336,0,0,1-.90575-3.33345c.29121-.47093.60348-.93138.9382-1.37229a1.206,1.206,0,0,1,2.03433.00147,5.56711,5.56711,0,0,1,1.29754,2.30906,1.97859,1.97859,0,0,1-.99576,2.20242c-.60825.32755-.53333.74509-.49085,1.29645.4173-.03136.811-.08368,1.205-.08644,1.37113-.0096,2.74239-.00455,4.11357.00265a1.28271,1.28271,0,0,1,.4517.08332.72382.72382,0,0,1,.495.7567.70855.70855,0,0,1-.6079.713,3.24152,3.24152,0,0,1-.64362.00948,34.49524,34.49524,0,0,0-12.25069,1.62874,20.3666,20.3666,0,0,0-4.72377,2.28781A59.81731,59.81731,0,0,1,23.54147,45.772a29.49111,29.49111,0,0,1-9.70193,2.82819c-1.49708.1696-3.01035.23528-4.51789.26446-2.35732.04564-4.716.02073-7.07412.02363a2.30219,2.30219,0,0,1-.50548-.03011.75962.75962,0,0,1-.63243-.75249.778.778,0,0,1,.66356-.773,3.29953,3.29953,0,0,1,.50725-.02007c3.03588-.02514,6.0734.00183,9.107-.09473,1.57542-.05015,3.14389-.3183,4.75087-.49179,0-.80519.01121-1.49618-.01287-2.18595-.00336-.09632-.16689-.24592-.27869-.271a4.82038,4.82038,0,0,1-2.90711-7.3324c.303-.47991.58235-.97473.92922-1.55778-1.26308-.31171-2.45694-.64907-3.66916-.89664a30.22976,30.22976,0,0,0-7.76533-.59261,4.28855,4.28855,0,0,1-.55436.0077A.80009.80009,0,0,1,1.1029,33.131a.75527.75527,0,0,1,.77941-.79731c1.90769.02707,3.82092.00425,5.72085.14823a27.78563,27.78563,0,0,1,6.75165,1.46537.44741.44741,0,0,0,.63592-.23071,5.16538,5.16538,0,0,1,.36886-.531,1.77829,1.77829,0,0,1,3.07821.03368c.63174.91046,1.24536,1.83557,1.8189,2.7833.23121.382.43465.46624.83749.28109.87995-.40442,1.77994-.76506,2.66688-1.15465.27821-.1222.54089-.27973.82416-.42815-.05091-.05463-.07523-.09939-.11261-.11817-2.15785-1.08485-4.30278-2.19663-6.47869-3.24405A37.8161,37.8161,0,0,0,5.83208,27.74282C4.627,27.60515,3.40367,27.613,2.188,27.58731c-.6232-.01314-.99573-.2534-1.01539-.75387-.0198-.50422.31259-.84028.94239-.82576,1.33844.03086,2.67581.10961,4.01347.17183C6.27772,26.18646,6.426,26.21344,6.57866,26.23158Zm7.0576,13.32585a3.55167,3.55167,0,0,0,1.43056,2.65181,3.10365,3.10365,0,0,0,3.88325-.19858,3.18512,3.18512,0,0,0,.63889-4.0381c-.76-1.28419-1.60047-2.5206-2.39869-3.78236-.21133-.33407-.39225-.34394-.607-.00585-.80053,1.26036-1.63815,2.49859-2.39527,3.78434A8.27406,8.27406,0,0,0,13.63626,39.55743ZM27.9081,41.355l-6.27216-2.13857a4.8716,4.8716,0,0,1-3.8848,5.111v1.90794A31.41961,31.41961,0,0,0,27.9081,41.355Zm-5.78881-9.55783c1.39155.599,2.712,1.17753,4.04466,1.72653a.7185.7185,0,0,0,.53578-.09251c1.108-.63262,2.205-1.28465,3.30415-1.93269.0985-.05807.18814-.13117.30066-.21052a4.74594,4.74594,0,0,0-8.18525.50919Zm13.733-13.70364c-.14392.2047-.23773.32207-.31441.44974-.53837.8963-1.06851,1.79758-1.61077,2.69151a2.85363,2.85363,0,0,0-.35754,2.0378,2.313,2.313,0,0,0,2.586,1.9007,2.48526,2.48526,0,0,0,1.7402-3.54518C37.30278,20.43471,36.5648,19.31341,35.85226,18.09349ZM14.59841,19.61625l-.1561.01547a25.24308,25.24308,0,0,0-1.26653,2.39739,3.0431,3.0431,0,0,0-.12447,1.5193,1.49277,1.49277,0,0,0,1.2658,1.29613A1.40123,1.40123,0,0,0,15.7753,24.087a2.04418,2.04418,0,0,0,.15325-1.90616C15.51774,21.31059,15.04474,20.46972,14.59841,19.61625ZM7.41607,21.43346c-.19921.36344-.35474.64338-.5063.92545-.06536.12164-.17525.24842-.17351.37158a2.88031,2.88031,0,0,0,.1087,1.09679.638.638,0,0,0,1.15575.0159,1.17478,1.17478,0,0,0,.05388-1.23108C7.86379,22.244,7.66011,21.88257,7.41607,21.43346ZM41.34458,31.79194c-.25856.39943-.50336.73222-.698,1.09214a.58637.58637,0,0,0,.19884.81465A.80894.80894,0,0,0,41.874,33.677a.58613.58613,0,0,0,.15827-.82281C41.83312,32.51238,41.60333,32.18846,41.34458,31.79194Z"/><path class="cls-1" d="M20.55509,8.0075a3.89306,3.89306,0,0,1,4.64916,2.22626,1.54086,1.54086,0,0,0,1.033,1.038,2.63983,2.63983,0,0,1,1.6544,2.93418,2.69444,2.69444,0,0,1-2.56645,2.31081c-2.46544.03315-4.93182.02827-7.39743.003a2.637,2.637,0,0,1-2.47709-1.94885c-.08813-.33083-.231-.40255-.53844-.39752a17.71233,17.71233,0,0,1-1.8466-.039,2.73454,2.73454,0,0,1-.39883-5.38164.54537.54537,0,0,0,.45343-.43186,3.914,3.914,0,0,1,7.27763-.61971C20.445,7.79644,20.49488,7.89039,20.55509,8.0075ZM21.582,14.95692q1.75536,0,3.51072-.00007c.03079,0,.06163-.00021.09236-.00183a1.179,1.179,0,0,0,1.15641-1.04866c.05754-.573-.3581-1.25544-.91431-1.248-1.04895.014-1.42264-.44556-1.5654-1.45557a2.19763,2.19763,0,0,0-2.33871-1.75137,2.32351,2.32351,0,0,0-2.22919,2.02454c-.14838.98575-.22,1.05207-1.21606,1.1256a1.17836,1.17836,0,1,0,.08585,2.35359C19.30309,14.96231,20.44257,14.957,21.582,14.95692Zm-7.2824-2.37019v.00684a7.55328,7.55328,0,0,1,.78377.00534.69685.69685,0,0,0,.73741-.393,2.808,2.808,0,0,1,1.62768-1.13429.827.827,0,0,0,.38684-.35372c.34585-.55326.624-1.155,1.01733-1.66995.2117-.27717.29465-.46378.09716-.74466a3.823,3.823,0,0,0-.29272-.41246,2.36149,2.36149,0,0,0-4.12443,1.36663c-.03937.35047-.0815.699-.43581.85222a2.08315,2.08315,0,0,1-.716.12077,1.17677,1.17677,0,1,0-.04963,2.35281C13.65277,12.60368,13.97673,12.58673,14.29962,12.58673Z"/><path class="cls-1" d="M37.39606,10.23354c-1.17133-.00067-2.343.01769-3.51387-.0059a2.67321,2.67321,0,0,1-2.52038-1.57842,2.63689,2.63689,0,0,1,.28175-2.83563,2.48141,2.48141,0,0,1,1.50568-1.00213.5647.5647,0,0,0,.49173-.44779,3.91977,3.91977,0,0,1,3.75557-2.81514A3.96945,3.96945,0,0,1,41.16869,4.3582a.69856.69856,0,0,0,.39171.41253,2.81092,2.81092,0,0,1,2.14722,2.86205,2.77492,2.77492,0,0,1-2.567,2.58481c-.16829.01627-.33859.01573-.508.01594Q39.01435,10.23552,37.39606,10.23354Zm.01462-1.57745c1.10917,0,2.21835.00417,3.32749-.00137a1.23861,1.23861,0,0,0,1.39244-1.16421,1.23563,1.23563,0,0,0-1.34472-1.21458c-.75477-.02788-.95731-.22191-1.03668-.99309a2.35851,2.35851,0,0,0-4.69809-.01577c-.08585.80451-.27678.95517-1.06551,1.02248a1.8545,1.8545,0,0,0-.92381.32941,1.05672,1.05672,0,0,0-.31615,1.25643,1.2001,1.2001,0,0,0,1.19894.77645C35.09984,8.66418,36.25531,8.65546,37.41068,8.65609Z"/></svg>