<svg id="Capa_1" data-name="Capa 1" xmlns="http://www.w3.org/2000/svg" viewBox="0 0 50 50"><defs><style>.cls-1{fill:#8cc541;}</style></defs><path class="cls-1" d="M25.04735,6.92206c4.98039,0,9.9608.00607,14.94115-.00866a1.459,1.459,0,0,1,1.25617.60706q3.497,4.405,7.02066,8.78888a.98763.98763,0,0,1-.03669,1.54448Q37.01719,30.25158,25.80245,42.64634a.95212.95212,0,0,1-1.607-.00214Q13.26038,30.55608,2.3279,18.46562c-.20619-.228-.41743-.45161-.61865-.68391a.951.951,0,0,1-.00093-1.4372Q3.92285,13.57,6.14328,10.8001c.88333-1.104,1.77683-2.2,2.64454-3.3161A1.36257,1.36257,0,0,1,9.968,6.91478Q17.50765,6.93284,25.04735,6.92206ZM15.35988,18.01767c3.21046,7.27728,6.40053,14.5083,9.64007,21.8515l9.64017-21.8515Zm19.04277-1.88776c-.056-.116-.078-.17261-.10883-.224-1.374-2.29078-2.75445-4.57767-4.11525-6.87623a.54051.54051,0,0,0-.57021-.26271c-3.07311.00257-6.14625.00656-9.21931-.00591a.61692.61692,0,0,0-.6153.35046c-1.31671,2.21762-2.64845,4.42631-3.97406,6.63866-.06722.11219-.11913.23354-.19283.37969ZM4.39142,17.99265,21.664,37.09128a.51633.51633,0,0,0-.05452-.3224q-4.06773-9.22515-8.13007-18.45268a.47136.47136,0,0,0-.5116-.32933c-2.72057.00946-5.44118.00578-8.16178.00578ZM28.265,37.04634l.08164.03593L45.61018,17.99263h-.521c-2.65767,0-5.3154.00769-7.973-.00931a.586.586,0,0,0-.63772.423Q33.32929,25.59175,30.155,32.7662,29.21089,34.90669,28.265,37.04634ZM4.25912,16.11513c.13142.018.17616.02942.2209.02944,2.87256.001,5.74515-.00468,8.61764.01018.29385.00152.3982-.148.52006-.35164q1.98576-3.31889,3.97753-6.63417c.06754-.11268.1225-.2329.19771-.37722-.10282-.01065-.16055-.02183-.21828-.02186-2.381-.001-4.762-.007-7.1429.01113a.78332.78332,0,0,0-.51654.27789c-.93559,1.13919-1.85125,2.29476-2.772,3.44612C6.196,13.68946,5.24991,14.87483,4.25912,16.11513Zm41.4741.0305c-.07735-.12111-.10436-.17332-.14036-.21835-1.84141-2.303-3.6793-4.6089-5.53571-6.89976a.83354.83354,0,0,0-.57684-.24793c-2.28872-.017-4.57761-.01134-6.86646-.00961-.12738.0001-.25475.01843-.428.03181,1.45249,2.42044,2.87135,4.789,4.30055,7.15129a.446.446,0,0,0,.322.1846C39.7569,16.14766,42.70549,16.14563,45.73322,16.14563Z"/></svg>