<svg id="Capa_1" data-name="Capa 1" xmlns="http://www.w3.org/2000/svg" viewBox="0 0 50 50"><defs><style>.cls-1{fill:#8cc541;}.cls-2{fill:#fff;}</style></defs><path class="cls-1" d="M44.93608,33.97926q-5.15991-3.78-10.34-7.55a4.23769,4.23769,0,0,0-2.55-.84c-.13,0-.26.01-.39.02-.23.02-.47.05-.72.07l-.12.02-.02-.12a5.38834,5.38834,0,0,0-2.07-3.56l-.1-.09.09-.1a3.94643,3.94643,0,0,0,1.15-2.46c.00995-.13995.00995-.28.00995-.43a19.97368,19.97368,0,0,0-.14-2.02q-.555-5.655-1.15-11.31a1.918,1.918,0,0,0-1.99-1.79h-2.03a1.86287,1.86287,0,0,0-1.92,1.66c-.16,1.15-.27,2.31-.39,3.47-.32,2.94-.61,5.88-.96,8.81a7.02669,7.02669,0,0,0-.06.9,4.382,4.382,0,0,0,1.12,3.09l.02.03v.02l.07.2-.07.06a5.31037,5.31037,0,0,0-2.03,3.49005l-.02.12-.12-.02c-.16-.02-.29-.03-.43-.05a4.73644,4.73644,0,0,0-.75-.06,4.00241,4.00241,0,0,0-2.4.78q-5.26493,3.78-10.51,7.6a1.84935,1.84935,0,0,0-.82,1.52,2.0673,2.0673,0,0,0,.28,1.02c.33.6.68,1.2,1.03,1.79a1.8873,1.8873,0,0,0,1.64,1,2.18363,2.18363,0,0,0,.83-.18q5.925-2.61,11.84-5.24a4.14993,4.14993,0,0,0,2.24-2.39c.04-.1.09-.19995.14-.31l.04-.1.11.04a2.38261,2.38261,0,0,0,.41.15.6339.6339,0,0,1,.5.26.99148.99148,0,0,1,.1.52v.04c-.01,1.13-.01,2.27-.01,3.41v8.58a1.1128,1.1128,0,0,0,.7,1.1,1.04457,1.04457,0,0,0,.42.08,1.11567,1.11567,0,0,0,1.07-1.21c.01-1.8.01-3.59.01-5.39v-6.15c0-.47-.02-.72.14-.94.17-.21.42-.28.9-.44l.12006-.04.04.12a4.69061,4.69061,0,0,0,3.04,3.03c.87.35,1.71.77,2.56,1.15q4.305,1.905,8.61005,3.83a1.76315,1.76315,0,0,0,.74.16,2.002,2.002,0,0,0,1.69-.98c.32-.6.68-1.18,1.01-1.76a2.19375,2.19375,0,0,0,.3-1.06A1.9334,1.9334,0,0,0,44.93608,33.97926Zm-25.03-2.1c-1.98.89-3.98,1.77-5.97,2.65-1.79.79-3.59,1.59-5.43,2.4l-.1.05-.06-.1c-.24-.41-.46-.8-.7-1.21l-.05-.09.08-.07c.1-.08.19-.15.29-.23,3.26-2.36,6.51-4.72,9.78-7.07a2.34991,2.34991,0,0,1,1.39-.47,2.136,2.136,0,0,1,2.11,1.9,2.64911,2.64911,0,0,1,.02.28A2.17933,2.17933,0,0,1,19.90611,31.87922Zm3.52-13.29q.645-5.97,1.28-11.96c.02-.16.05-.32.08-.49l.01-.11h1.61l.02.11c.07.64.14,1.29.21,1.93q.525,5.07,1.04,10.14c.00995.16.02.33.02.5a2.70369,2.70369,0,0,1-.09.75,2.07379,2.07379,0,0,1-2.02,1.52,2.28128,2.28128,0,0,1-.44-.05,2.14512,2.14512,0,0,1-1.73-2.1Zm5.22,7.66a3.075,3.075,0,1,1-3.07-3.08h.01a3.08144,3.08144,0,0,1,3.06,3.07Zm14.8,9.5c-.24.42-.46.8-.7,1.22l-.06006.09-.1-.04c-.89-.4-1.75-.78-2.61-1.17q-4.365-1.95-8.74-3.91a2.09055,2.09055,0,0,1-1.36-1.87l-.00995-.17a2.0622,2.0622,0,0,1,1.02-1.8,1.97112,1.97112,0,0,1,1.1-.33,2.35422,2.35422,0,0,1,1.39.49q2.4,1.74,4.8,3.49,2.445,1.785,4.89,3.57c.11.08.21.17.35.27l.09.07Z"/><path class="cls-1" d="M16.05614,9.66926a1.17411,1.17411,0,0,1-.59.98,18.698,18.698,0,0,0-6.59,7.49,18.27475,18.27475,0,0,0-1.83,6.91,1.162,1.162,0,0,1-1.09,1.21l-.07-.01a1.14048,1.14048,0,0,1-1.05-1.25995v-.05005l-.12-.01h.12a20.80777,20.80777,0,0,1,8.2-15.23c.39-.31.8-.58,1.22-.86a1.28983,1.28983,0,0,1,.74005-.25,1.09831,1.09831,0,0,1,1.06,1.08Z"/><polygon class="cls-2" points="4.836 24.929 4.836 24.939 4.716 24.929 4.836 24.929"/><path class="cls-1" d="M46.36614,24.91926l-.13.00995v.07a1.11751,1.11751,0,0,1-1.03,1.25l-.07.01a1.14789,1.14789,0,0,1-1.09-1.13,18.47992,18.47992,0,0,0-8.33-14.4,1.30045,1.30045,0,0,1-.68-1.04l.02-.18a1.02822,1.02822,0,0,1,1.05-.91,1.2877,1.2877,0,0,1,.7.21,20.34482,20.34482,0,0,1,4.55,4.03,20.73218,20.73218,0,0,1,4.79,11.06c.05.36.07.71.09,1.02Z"/><polygon class="cls-2" points="46.366 24.919 46.236 24.929 46.236 24.919 46.366 24.919"/><path class="cls-1" d="M18.25609,13.56923a.05994.05994,0,0,1-.04.01h-.02l.01-.12Z"/><path class="cls-1" d="M19.31609,14.74922a1.13848,1.13848,0,0,1-.49.9,24.91172,24.91172,0,0,0-2.05,1.67,12.34852,12.34852,0,0,0-3.72,8.09,1.14525,1.14525,0,0,1-1.1,1.17h-.06a1.09383,1.09383,0,0,1-1.03-1.2v-.07a7.1756,7.1756,0,0,1,.1-1.04,14.69976,14.69976,0,0,1,6.52-10.35,4.52556,4.52556,0,0,1,.73-.34,1.23988,1.23988,0,0,1,1.04.81A1.13133,1.13133,0,0,1,19.31609,14.74922Z"/><path class="cls-2" d="M18.25609,13.56923a.05994.05994,0,0,1-.04.01h-.02l.01-.12Z"/><path class="cls-1" d="M40.22612,25.19923v.07c-.01.81-.41,1.26-1.02,1.31h-.08a1.15713,1.15713,0,0,1-1.1-1.19,12.45313,12.45313,0,0,0-5.36-9.46c-.13-.1-.27-.18994-.39-.28a1.14187,1.14187,0,0,1-.51-.92,1.11264,1.11264,0,0,1,1.08-1.09,1.2349,1.2349,0,0,1,.65.2,14.54524,14.54524,0,0,1,4.14,4.02A14.75793,14.75793,0,0,1,40.22612,25.19923Z"/></svg>