<svg id="Capa_1" data-name="Capa 1" xmlns="http://www.w3.org/2000/svg" viewBox="0 0 50 50"><defs><style>.cls-1{fill:#8cc541;}</style></defs><path class="cls-1" d="M33.60658,39.78219a.86066.86066,0,1,0,.86066.86066A.861.861,0,0,0,33.60658,39.78219Z"/><path class="cls-1" d="M16.39342,39.78219a.86066.86066,0,1,0,.86065.86066A.861.861,0,0,0,16.39342,39.78219Z"/><path class="cls-1" d="M41.49409,35.32484a9.726,9.726,0,0,0-3.8598-3.4607.85608.85608,0,0,0-.48868-.22489,9.00328,9.00328,0,0,0-3.539-.72184h-2.582V28.64674A9.87243,9.87243,0,0,0,34.11386,23.774h.35338a3.44037,3.44037,0,0,0,2.52844-5.77588c.05414-.046.107-.09381.15776-.14451a2.58108,2.58108,0,0,0-.9944-4.26946,9.49974,9.49974,0,0,0-6.906-8.39969A2.73834,2.73834,0,0,0,26.72132,2.86H23.27868A2.73834,2.73834,0,0,0,20.747,5.18441a9.49978,9.49978,0,0,0-6.90592,8.39848,2.58051,2.58051,0,0,0-.836,4.41449A3.44034,3.44034,0,0,0,15.53276,23.774h.351a9.89285,9.89285,0,0,0,2.40933,4.2285c.21611.22532.44522.44.68233.6436v2.27136h-2.582a9.00417,9.00417,0,0,0-3.539.72175.85639.85639,0,0,0-.4886.22489,9.86116,9.86116,0,0,0-5.43962,8.7788V46.065a.8607.8607,0,0,0,.86066.86066H42.21317a.8607.8607,0,0,0,.86066-.86066V40.64285A9.78507,9.78507,0,0,0,41.49409,35.32484Zm-29.404,9.8795H8.64749V40.64285a8.22193,8.22193,0,0,1,3.44263-6.61657ZM34.46724,22.05263H34.428c.02565-.28634.03924-.57371.03924-.86066V18.61a1.72132,1.72132,0,1,1,0,3.44263ZM20.69671,7.00307v3.861a.86066.86066,0,1,0,1.72131,0V5.70012c0-.53326.45047-1.11886.86066-1.11886h3.44264c.41019,0,.86066.5856.86066,1.11886v5.164a.86066.86066,0,1,0,1.72131,0v-3.861a7.78,7.78,0,0,1,5.11584,6.443H15.58087A7.78,7.78,0,0,1,20.69671,7.00307ZM15.53276,22.05263a1.72132,1.72132,0,1,1,0-3.44263v2.582c0,.28695.0136.57441.03924.86066Zm0-5.16395H14.6721a.86066.86066,0,0,1,0-1.72132H35.3279a.86066.86066,0,0,1,0,1.72132H15.53276Zm1.8777,5.86823L17.405,22.729a7.93815,7.93815,0,0,1-.151-1.537V18.61H32.74593v2.582a7.9413,7.9413,0,0,1-.151,1.53671l-.00542.02806a8.15293,8.15293,0,0,1-2.99914,4.84042,7.38894,7.38894,0,0,1-9.18211-.00094,7.9757,7.9757,0,0,1-.87314-.78544A8.16164,8.16164,0,0,1,17.41046,22.75691Zm6.72888,22.44743H17.25407V43.22483a.86066.86066,0,1,0-1.72131,0v1.97951H13.81144V33.10985a7.285,7.285,0,0,1,1.72132-.42017v5.3712a.86066.86066,0,1,0,1.72131,0V32.63873h2.21319l4.67208,4.90575ZM20.69671,31.43381V29.83074a9.06433,9.06433,0,0,0,8.60658.00009v1.603L25,35.95226ZM36.18856,45.20434H34.46724V43.22483a.86066.86066,0,1,0-1.72131,0v1.97951H25.86066V37.54448l4.67208-4.90575h2.21319v5.42215a.86066.86066,0,1,0,1.72131,0v-5.3712a7.28616,7.28616,0,0,1,1.72132.42026Zm5.164,0H37.90988V34.0262a8.22194,8.22194,0,0,1,3.44263,6.61665Z"/></svg>