<?xml version="1.0" encoding="utf-8"?>
<!-- Generator: Adobe Illustrator 25.2.3, SVG Export Plug-In . SVG Version: 6.00 Build 0)  -->
<svg version="1.1" id="Layer_1" xmlns="http://www.w3.org/2000/svg" xmlns:xlink="http://www.w3.org/1999/xlink" x="0px" y="0px"
	 viewBox="0 0 360 360" style="enable-background:new 0 0 360 360;" xml:space="preserve">
<style type="text/css">
	.st0{fill:#8CC541;}
</style>
<g>
	<path class="st0" d="M358.61,179.94c-0.04-49.91-20-93.75-51.34-125.47C275.92,22.75,233.18,3.12,187.52,1.56
		c-2.26-0.08-4.51-0.12-6.74-0.12c-52.28,0-96.44,20.94-127.84,52.81C21.55,86.12,2.88,128.91,1.49,172.68
		c-0.07,2.11-0.1,4.2-0.1,6.28c0,52.26,20.94,96.44,52.85,127.87c31.91,31.43,74.79,50.16,118.73,51.62c2.12,0.07,4.23,0.1,6.32,0.1
		c51.31,0,96.16-20.84,128.16-53.43c31.99-32.59,51.16-76.93,51.16-123.97C358.61,180.76,358.61,180.35,358.61,179.94z
		 M63.73,296.55c-29.74-29.56-48.74-70.53-48.74-116.97c0-1.01,0.01-2.02,0.03-3.04c0.77-43.47,19.18-83.84,48.75-113.33
		c29.57-29.49,70.26-48.1,115.62-48.1c0.25,0,0.5,0,0.75,0l0.01,0l0.01,0c0.36,0,0.73,0,1.09,0c44.24,0,85.21,18.37,115.11,48.21
		c29.91,29.84,48.74,71.13,48.74,116.97c0,0.78-0.01,1.56-0.02,2.34c-0.6,43.15-18.77,83.73-48.41,113.51
		c-29.64,29.78-70.7,48.76-117.12,48.76c-0.9,0-1.81-0.01-2.71-0.02l0,0C133.94,344.21,93.47,326.11,63.73,296.55z"/>
	<polygon class="st0" points="358.61,179.93 358.61,179.94 358.61,179.94 	"/>
	<polygon class="st0" points="161.53,168.18 161.53,168.18 161.53,168.17 	"/>
	<path class="st0" d="M184.12,306.31c8.74,0,17.23-1.56,25.52-3.48c11.18-2.59,21.82-6.82,31.85-12.48
		c21.81-12.3,38.69-29.52,50.42-51.63c5.52-10.4,9.5-21.4,11.8-33.02l0,0c1.5-7.53,2.59-15.12,2.59-22.88
		c0-0.98-0.02-1.97-0.05-2.96l0,0c-0.07-1.82-0.7-3.47-1.82-4.67c-1.12-1.21-2.71-1.93-4.47-2.02c-0.15-0.01-0.3-0.01-0.44-0.01
		c-1.63,0-3.16,0.51-4.33,1.51c-1.18,0.99-1.95,2.45-2.2,4.12l0,0c-0.31,2.11-0.47,4.26-0.48,6.39v0
		c-0.05,11.14-2.41,21.92-6.2,32.37c-6.96,19.21-18.25,35.46-33.94,48.67c-14.74,12.39-31.55,20.61-50.34,24.22l0,0
		c-8.52,1.64-17.51,1.69-26.45,1.84h0c-0.45,0.01-0.91,0.01-1.36,0.01c-13.53,0-26.45-3.51-38.89-8.97
		c-22.9-10.06-40.56-25.98-53.16-47.6c-6.16-10.58-10.7-21.87-12.69-33.83l0,0c-1.44-8.61-1.57-17.56-1.84-26.49
		c-0.02-0.67-0.03-1.34-0.03-2.01c0-10.58,2.5-20.88,6.12-30.9c6.94-19.21,18.16-35.54,33.91-48.67
		c21.05-17.54,45.24-26.41,72.61-26.51c0.12,0,0.25,0,0.37,0c11.86,0,23.46,1.93,34.81,5.71c13.84,4.61,26.17,11.7,37.36,20.98l0,0
		c0.76,0.63,1.3,1.1,1.56,1.4c0.07,0.07,0.11,0.13,0.15,0.18l-0.02,0.04c-0.16,0.28-0.68,0.85-1.47,1.63l0,0
		c-8,8.01-16.08,15.97-24.01,24.09c-0.44,0.45-0.81,0.74-1.08,0.89c-0.28,0.15-0.43,0.18-0.59,0.18c-0.15,0-0.34-0.03-0.63-0.17
		c-0.29-0.14-0.67-0.38-1.13-0.75c-10.19-8.16-21.98-13.12-34.81-14.83c-3.75-0.5-7.48-0.76-11.2-0.76
		c-10.06,0-19.98,1.93-29.46,6.33c-12.21,5.67-22.03,13.32-29.31,22.9c-7.28,9.57-11.99,21.04-14.06,34.27
		c-0.61,3.88-0.91,7.73-0.91,11.54c0,12.69,3.39,24.98,10.22,36.32c5.68,9.44,12.66,17.18,20.96,23.09
		c8.29,5.91,17.9,9.99,28.8,12.17c4.88,0.98,9.75,1.46,14.6,1.46c6.03,0,12.02-0.75,17.95-2.22c12.8-3.18,24.12-9.5,33.5-18.83
		c7.13-7.1,12.59-14.98,16.3-23.62c3.71-8.64,5.67-18.03,5.83-28.13l0-0.16c0-0.97-0.15-2.02-0.46-3.03c-0.32-1-0.79-1.99-1.66-2.75
		l0,0c-0.7-0.59-1.53-1.02-2.43-1.34c-0.89-0.31-1.84-0.5-2.78-0.5c-0.47,0-0.95,0.05-1.41,0.17c-0.91,0.23-1.71,0.64-2.37,1.18
		c-1,0.81-1.64,1.89-2.03,3.02c-0.39,1.14-0.53,2.34-0.53,3.54l0,0.04l0-0.01l0,0.16c0,9.84-2.58,19-7.42,27.55l0,0
		c-4.7,8.3-10.58,15.01-17.59,20.08c-7.01,5.07-15.17,8.5-24.49,10.21c-3.85,0.7-7.65,1.06-11.39,1.06
		c-11.61,0-22.63-3.39-32.89-10.3c-17.42-11.75-27.02-30.52-27.03-49.85c0-7.09,1.29-14.26,3.98-21.19
		c4.52-11.65,11.11-20.76,19.68-27.3c8.58-6.54,19.16-10.54,31.75-11.82c2.09-0.21,4.16-0.32,6.2-0.32
		c12.61,0.01,24.17,4,34.69,11.77l0,0c0.72,0.53,1.22,0.94,1.45,1.19c0.04,0.05,0.07,0.08,0.09,0.11c-0.05,0.09-0.14,0.23-0.29,0.41
		c-0.25,0.31-0.64,0.72-1.15,1.23c-7.79,7.8-15.67,15.54-23.38,23.47c-0.72,0.74-1.37,1.35-1.95,1.73
		c-0.52,0.34-0.94,0.49-1.36,0.52c-2.79-1.28-5.89-2-9.16-2c-3.61,0-7.02,0.87-10.03,2.42c-0.01,0-0.01,0-0.02,0.01v0l0,0
		l-0.02,0.01l-0.02,0.01c0,0,0,0,0,0c0,0,0,0,0,0l0,0c-3.43,1.77-6.33,4.43-8.4,7.66c-0.08,0.12-0.14,0.23-0.2,0.32l0,0
		c0,0,0,0,0,0.01c0,0.01-0.01,0.02-0.02,0.02l0,0.01l-0.01,0.01c0,0.01-0.01,0.01-0.01,0.02c-2.05,3.33-3.22,7.26-3.22,11.45
		c0,12.13,9.83,21.95,21.95,21.95c12.13,0,21.95-9.83,21.95-21.95c0-3.06-0.63-5.97-1.76-8.62c-0.03-0.22-0.05-0.43-0.05-0.6
		c0-0.51,0.09-0.85,0.3-1.26c0.21-0.41,0.57-0.88,1.15-1.44c11.7-11.58,23.32-23.23,34.95-34.86c14.91-14.9,29.83-29.8,44.72-44.73
		c1.68-1.68,2.57-3.79,2.57-5.86c0-1.62-0.57-3.23-1.72-4.45c-1.24-1.33-2.96-2-4.69-1.99c-2.06,0-4.16,0.89-5.87,2.53
		c-2.1,2-4.09,4.07-6.09,6.09l0,0c-0.28,0.28-0.52,0.45-0.69,0.54c-0.17,0.09-0.27,0.1-0.37,0.1c-0.1,0-0.23-0.02-0.44-0.12
		c-0.21-0.1-0.48-0.27-0.81-0.55l0,0c-3.15-2.68-6.34-5.4-9.8-7.82l0,0c-16.99-11.86-35.69-19.4-56.38-22.13
		c-5.78-0.76-11.54-1.15-17.27-1.15c-9.85,0-19.62,1.13-29.3,3.37c-11.18,2.59-21.82,6.82-31.86,12.48
		c-21.81,12.3-38.65,29.54-50.44,51.6c-7.49,14.03-11.99,29.04-13.73,44.79c-0.53,4.79-0.8,9.58-0.8,14.34
		c0,11.72,1.62,23.33,4.92,34.75c5.12,17.72,13.67,33.77,25.94,47.59c12.66,14.26,27,25.04,42.95,32.3
		c15.94,7.26,33.48,11,52.53,11.26C181.34,306.27,182.73,306.31,184.12,306.31z M180.02,171.45c2.37,0,4.5,0.96,6.05,2.51
		c1.55,1.55,2.51,3.69,2.51,6.05c0,2.37-0.96,4.5-2.51,6.05c-1.55,1.55-3.69,2.51-6.05,2.51c-2.37,0-4.5-0.96-6.05-2.51
		c-1.55-1.55-2.51-3.68-2.51-6.05c0-2.37,0.96-4.5,2.51-6.05C175.52,172.41,177.65,171.45,180.02,171.45z"/>
	<polygon class="st0" points="271.56,78.73 271.56,78.73 271.57,78.73 	"/>
	<polygon class="st0" points="253.96,181.18 253.96,181.18 253.96,181.18 	"/>
	<polygon class="st0" points="245.21,173.58 245.22,173.58 245.22,173.58 	"/>
</g>
</svg>
