<?xml version="1.0" encoding="utf-8"?>
<!-- Generator: Adobe Illustrator 25.2.3, SVG Export Plug-In . SVG Version: 6.00 Build 0)  -->
<svg version="1.1" id="Layer_1" xmlns="http://www.w3.org/2000/svg" xmlns:xlink="http://www.w3.org/1999/xlink" x="0px" y="0px"
	 viewBox="0 0 360 360" style="enable-background:new 0 0 360 360;" xml:space="preserve">
<style type="text/css">
	.st0{fill:#8CC541;}
</style>
<g>
	<path class="st0" d="M317.59,222.87c-0.87-0.46-1.69-0.99-2.4-1.74c-0.72-0.75-1.26-1.74-1.5-2.77c-0.17-0.7-0.24-1.39-0.24-2.12
		v-0.12c0.07-6.85,0.09-13.69,0.09-20.54c0-6.4-0.02-12.8-0.02-19.21V174c0-17.3,0.01-34.6,0.01-51.9c0-15.39-0.01-30.78-0.04-46.17
		c-0.02-7.57-2.47-14.19-6.71-19.25c-4.24-5.05-10.28-8.54-17.64-9.74c-4.4-0.72-9.26-0.51-14.92-0.78l-2.4-0.11v-2.4
		c0-2.99,0.09-5.84,0.09-8.57c0-1.62-0.03-3.2-0.13-4.76c-0.44-7.1-3.7-13.58-8.65-18.36c-4.95-4.78-11.57-7.81-18.69-8.05
		c-0.37-0.01-0.74-0.02-1.1-0.02c-8.12,0-15.19,3.06-20.36,8.2c-2.57,2.57-4.69,5.67-6.18,9.2c-1.5,3.52-2.39,7.46-2.53,11.73
		c-0.04,1.27-0.06,2.55-0.06,3.86c0,2.22,0.04,4.49,0.04,6.82v2.52h-26.18v-2.52c0-3.03,0.11-5.92,0.11-8.71
		c0-1.65-0.04-3.26-0.15-4.85c-0.5-7.12-3.79-13.57-8.76-18.32c-4.98-4.74-11.62-7.71-18.75-7.92c-0.3-0.01-0.61-0.01-0.91-0.01
		c-8.09,0.01-15.14,3.05-20.31,8.18c-2.57,2.56-4.7,5.65-6.19,9.17c-1.51,3.5-2.4,7.43-2.56,11.67c-0.05,1.27-0.07,2.55-0.07,3.87
		c0,2.23,0.05,4.53,0.05,6.94v2.52h-26.27v-2.52c0.01-3.21,0.14-6.31,0.14-9.29c0-1.77-0.05-3.48-0.19-5.18
		c-0.6-7.05-4.13-13.4-9.33-18.01c-5.19-4.6-12-7.41-18.94-7.4c-1.47,0-2.95,0.12-4.42,0.38c-7.53,1.32-13.55,4.77-17.79,9.76
		c-4.24,5.01-6.73,11.62-6.93,19.47c-0.03,1.24-0.04,2.49-0.04,3.76c0,2.16,0.03,4.38,0.03,6.7v2.52h-8.32c-1.05,0-2.07,0-3.09,0.01
		c-9.43,0.02-17.04,3.12-22.37,8.4c-5.31,5.29-8.42,12.85-8.44,22.23v205.81c0.02,9.38,3.12,16.95,8.42,22.25
		c5.31,5.28,12.92,8.38,22.37,8.4c21.91,0,43.83,0.01,65.75,0.01c37.85,0,75.69-0.02,113.54-0.06h0.02c1.1,0,2.16,0.09,3.22,0.46
		c1.07,0.37,2.06,1.06,2.8,1.94c0.5,0.59,0.91,1.23,1.27,1.95c12.05,23.65,36.75,38.31,62.81,38.31c3.56,0,7.15-0.27,10.73-0.84
		c30.33-4.76,53.96-28.29,59.08-58.93c0.63-3.72,0.93-7.45,0.93-11.15C355.47,259.74,341.09,235.35,317.59,222.87z M230.48,30.56
		c0.34-3.19,2.01-5.92,4.3-7.79c2.29-1.88,5.23-2.98,8.32-2.98h0.24c3.13,0.06,6.07,1.24,8.32,3.2c2.25,1.96,3.84,4.75,4.13,7.98
		c0.15,1.66,0.2,3.29,0.2,4.91c0,2.6-0.11,5.16-0.11,7.75v2.52h-25.51v-2.52c0-2.56-0.13-5.21-0.13-7.91
		C230.25,34.03,230.3,32.31,230.48,30.56z M146.55,31.7c0.23-3.36,1.77-6.33,4.04-8.45c2.27-2.11,5.3-3.4,8.57-3.45h0.21
		c3.31,0,6.4,1.25,8.7,3.37c1.15,1.06,2.12,2.34,2.83,3.79c0.71,1.44,1.15,3.05,1.27,4.76c0.11,1.53,0.15,3.06,0.15,4.56
		c0,2.45-0.09,4.88-0.09,7.36v2.52h-25.75v-2.52c0-2.48-0.08-4.92-0.08-7.36C146.41,34.76,146.44,33.24,146.55,31.7z M63.33,29.29
		c0.22-1.48,0.8-2.85,1.59-4.02c0.79-1.17,1.79-2.17,2.92-2.97c2.26-1.61,5-2.5,7.81-2.51c0.28,0,0.58,0.01,0.86,0.03
		c2.96,0.21,5.66,1.43,7.75,3.34c2.1,1.91,3.57,4.49,4.08,7.44c0.18,1.08,0.25,2.15,0.26,3.17c0.01,1.46,0.01,2.93,0.01,4.41v8.13
		H63.15v-2.52c0-2.81-0.2-5.72-0.2-8.69C62.95,33.18,63.04,31.24,63.33,29.29z M20.48,75.11c0.03-3.3,1.26-6.38,3.33-8.69
		c1.03-1.15,2.28-2.12,3.71-2.81c1.42-0.69,3.01-1.09,4.7-1.11c7.98-0.1,15.95-0.13,23.93-0.13c9.82,0,19.66,0.04,29.51,0.04h2.52
		v2.52c0,2.68,0.17,5.4,0.17,8.19c0,1.78-0.07,3.58-0.33,5.4c-0.2,1.46-0.72,2.83-1.46,4.01s-1.73,2.19-2.84,3.01
		c-2.24,1.63-5.03,2.52-8.01,2.77c-2.49,0.21-4.49,1.23-5.89,2.67c-1.38,1.43-2.15,3.27-2.15,5.22c0,1.11,0.25,2.27,0.83,3.46
		c0.78,1.6,1.74,2.65,2.9,3.37c1.16,0.72,2.57,1.13,4.37,1.17h0.53c6.91,0.01,13.64-2.88,18.76-7.56
		c5.13-4.68,8.59-11.08,9.14-17.98c0.13-1.58,0.17-3.18,0.17-4.83c0-2.79-0.12-5.68-0.12-8.73v-2.52h67.79v2.52
		c0,2.5,0.14,5.08,0.14,7.71c0,1.67-0.06,3.36-0.26,5.08c-0.34,2.97-1.9,5.51-4.04,7.28c-2.15,1.78-4.89,2.85-7.81,3.12
		c-2.18,0.2-3.95,0.81-5.27,1.66c-1.32,0.85-2.22,1.92-2.77,3.21c-0.36,0.86-0.57,1.84-0.57,2.95c0,0.27,0.01,0.55,0.04,0.84
		c0.21,2.33,1.13,4.01,2.61,5.24c1.47,1.22,3.6,2,6.35,2c0.33,0,0.67-0.01,1.02-0.03c6.96-0.47,13.36-3.54,18.13-8.27
		c2.39-2.35,4.36-5.12,5.81-8.16c1.43-3.04,2.34-6.36,2.58-9.83c0.1-1.5,0.13-3.03,0.13-4.59c0-2.64-0.09-5.37-0.09-8.23v-2.52
		h67.72v2.52c0,2.51,0.14,5.08,0.14,7.71c0,1.67-0.06,3.36-0.25,5.08c-0.34,2.97-1.89,5.51-4.03,7.29c-2.15,1.78-4.88,2.86-7.8,3.14
		c-2.18,0.2-3.96,0.82-5.28,1.67c-1.33,0.86-2.24,1.93-2.79,3.22c-0.36,0.87-0.57,1.84-0.57,2.95c0,0.26,0.01,0.53,0.03,0.81
		c0.22,2.33,1.14,4.02,2.61,5.25c1.47,1.22,3.62,2,6.4,2c0.31,0,0.64-0.01,0.97-0.03c6.94-0.43,13.36-3.51,18.15-8.24
		c2.39-2.36,4.37-5.13,5.82-8.17c1.43-3.04,2.34-6.35,2.56-9.8c0.1-1.5,0.14-3.03,0.14-4.59c0-2.66-0.1-5.42-0.1-8.35v-2.52h2.52
		c2.58,0,5.06-0.12,7.53-0.12c1.55,0,3.1,0.05,4.68,0.22c3.04,0.33,5.75,1.81,7.71,3.93c1.98,2.12,3.25,4.95,3.28,8.04
		c0.07,7.95,0.09,15.89,0.09,23.86c0,9.63-0.03,19.3-0.03,29.02v2.52H20.45v-2.52c0-9.81-0.02-19.54-0.02-29.22
		C20.43,90.48,20.44,82.79,20.48,75.11z M213.84,285.74c0,2.98,0.18,6.01,0.57,9.08l0.34,2.84H35.5c-2.64,0-4.99-0.34-7.07-1.12
		c-2.07-0.78-3.86-2.04-5.16-3.75c-0.87-1.13-1.52-2.43-1.98-3.86c-0.6-1.91-0.86-4.02-0.86-6.36v-0.01
		c0-43.25,0.01-86.5,0.01-129.76v-6.54h276.96v69.31l-2.91-0.44c-3.41-0.53-6.82-0.78-10.18-0.78c-18.67,0-36.3,7.84-49.27,20.7
		C222.1,247.91,213.84,265.74,213.84,285.74z M339.47,285.62c-0.05,15.06-6.25,28.72-16.2,38.59c-9.95,9.88-23.67,16-38.76,16h-0.23
		c-15.01-0.06-28.65-6.27-38.51-16.21c-9.87-9.94-15.99-23.63-15.99-38.67v-0.05c0.01-15.11,6.19-28.81,16.13-38.71
		c9.94-9.91,23.66-16.05,38.77-16.05h0.11c15.08,0.03,28.76,6.22,38.65,16.16c9.9,9.94,16.03,23.67,16.03,38.76V285.62z"/>
	<path class="st0" d="M83.22,179.9v0.1c-0.01,2.23-0.86,4.15-2.28,5.56c-1.43,1.41-3.44,2.32-5.87,2.36
		c-3.38,0.05-6.77,0.07-10.15,0.07c-3.44,0-6.88-0.03-10.32-0.07c-2.47-0.04-4.49-0.94-5.92-2.34c-1.42-1.4-2.27-3.31-2.27-5.58
		v-0.04c0.01-2.24,0.87-4.13,2.32-5.53c1.44-1.4,3.5-2.31,5.99-2.36c1.25-0.02,2.5-0.03,3.77-0.03c2.08,0,4.17,0.02,6.28,0.02h0.03
		c2.18,0,4.33-0.03,6.45-0.03c1.31,0,2.61,0.01,3.9,0.04c2.36,0.07,4.34,0.97,5.77,2.36C82.33,175.83,83.19,177.72,83.22,179.9z"/>
	<path class="st0" d="M146.02,179.89V180c0,2.23-0.85,4.15-2.27,5.56c-1.43,1.41-3.43,2.31-5.85,2.35
		c-3.37,0.06-6.73,0.08-10.11,0.08c-3.45,0-6.91-0.03-10.36-0.07c-2.49-0.04-4.51-0.94-5.94-2.33c-1.42-1.41-2.27-3.32-2.28-5.6
		v-0.01c0.01-2.24,0.87-4.14,2.31-5.55c1.45-1.4,3.5-2.31,5.99-2.36c1.24-0.02,2.5-0.03,3.76-0.03c2.08,0,4.18,0.02,6.29,0.02h0.03
		c2.18,0,4.33-0.03,6.46-0.03c1.3,0,2.6,0.01,3.89,0.04c2.36,0.07,4.35,0.97,5.78,2.36C145.13,175.82,145.99,177.71,146.02,179.89z"
		/>
	<path class="st0" d="M208.82,179.91V180c-0.01,2.23-0.86,4.15-2.28,5.56c-1.43,1.41-3.44,2.32-5.87,2.36
		c-3.38,0.05-6.77,0.07-10.16,0.07c-3.43,0-6.87-0.03-10.31-0.07c-2.47-0.04-4.49-0.94-5.92-2.34c-1.42-1.4-2.27-3.31-2.27-5.58
		v-0.04c0.01-2.24,0.88-4.13,2.32-5.54c1.45-1.39,3.51-2.3,6-2.35c1.24-0.02,2.5-0.03,3.77-0.03c2.08,0,4.17,0.02,6.28,0.02h0.03
		c2.17,0,4.32-0.03,6.45-0.03c1.3,0,2.61,0.01,3.89,0.04c2.36,0.07,4.35,0.97,5.77,2.37C207.94,175.84,208.79,177.72,208.82,179.91z
		"/>
	<path class="st0" d="M271.63,179.98v0.07c-0.03,2.27-0.89,4.15-2.33,5.54c-1.45,1.39-3.51,2.29-6.03,2.34
		c-1.24,0.02-2.48,0.03-3.74,0.03c-2.09,0-4.19-0.02-6.31-0.02h-0.13c-2.13,0-4.24,0.03-6.33,0.03c-1.31,0-2.62-0.01-3.91-0.05
		c-2.37-0.07-4.35-0.97-5.76-2.36c-1.4-1.39-2.25-3.27-2.28-5.49v-0.08c0.01-2.22,0.86-4.13,2.29-5.55
		c1.44-1.42,3.45-2.32,5.87-2.36c3.43-0.05,6.86-0.07,10.29-0.07c3.39,0,6.79,0.02,10.18,0.07c2.44,0.04,4.46,0.94,5.9,2.35
		C270.77,175.84,271.62,177.75,271.63,179.98z"/>
	<path class="st0" d="M83.22,221.81v0.04c-0.01,2.18-0.84,4.09-2.24,5.51c-1.4,1.42-3.35,2.34-5.65,2.42
		c-1.34,0.04-2.69,0.06-4.05,0.06c-2.15,0-4.34-0.04-6.55-0.04h-0.11c-2.11,0-4.21,0.03-6.29,0.03c-1.25,0-2.5-0.01-3.74-0.04
		c-2.43-0.06-4.45-0.98-5.89-2.39c-1.43-1.42-2.28-3.32-2.28-5.54v-0.09c0.02-2.17,0.88-4.08,2.3-5.49c1.42-1.4,3.4-2.29,5.73-2.33
		c3.51-0.06,7.03-0.08,10.54-0.08c3.42,0,6.85,0.02,10.27,0.08c2.35,0.05,4.3,0.94,5.71,2.33C82.36,217.68,83.2,219.59,83.22,221.81
		z"/>
	<path class="st0" d="M146.02,221.76v0.1c0,2.23-0.85,4.15-2.27,5.56c-1.43,1.41-3.43,2.32-5.86,2.36
		c-3.38,0.05-6.76,0.07-10.14,0.07c-3.44,0-6.89-0.02-10.33-0.07c-2.45-0.04-4.47-0.94-5.92-2.35c-1.43-1.42-2.28-3.33-2.29-5.57
		v-0.04c0.02-2.24,0.88-4.13,2.33-5.54c1.45-1.39,3.5-2.3,6-2.35c1.25-0.02,2.51-0.03,3.79-0.03c2.07,0,4.16,0.02,6.26,0.02h0.07
		c2.15,0,4.29-0.03,6.4-0.03c1.31,0,2.62,0.02,3.91,0.05c2.38,0.07,4.36,0.96,5.77,2.34C145.14,217.67,145.99,219.55,146.02,221.76z
		"/>
	<path class="st0" d="M208.82,221.79v0.07c-0.01,2.24-0.86,4.16-2.28,5.57c-1.43,1.4-3.44,2.31-5.89,2.35
		c-3.41,0.05-6.82,0.07-10.23,0.07s-6.83-0.02-10.24-0.07c-2.42-0.04-4.44-0.95-5.88-2.36c-1.43-1.41-2.29-3.33-2.29-5.56v-0.07
		c0.02-2.24,0.89-4.12,2.34-5.52c1.45-1.39,3.51-2.29,6.01-2.34c1.26-0.02,2.51-0.03,3.79-0.03c2.07,0,4.16,0.02,6.27,0.02
		c2.11,0,4.2-0.02,6.28-0.02c1.26,0,2.51,0.01,3.77,0.03c2.54,0.05,4.59,0.95,6.04,2.32C207.94,217.63,208.79,219.5,208.82,221.79z"
		/>
	<path class="st0" d="M83.22,263.72v0.07c-0.03,2.28-0.89,4.16-2.32,5.55c-1.43,1.38-3.48,2.27-6.02,2.33
		c-1.24,0.02-2.48,0.03-3.74,0.03c-2.09,0-4.19-0.02-6.31-0.02h-0.07c-2.16,0-4.29,0.03-6.4,0.03c-1.31,0-2.62-0.02-3.91-0.05
		c-2.34-0.07-4.32-0.98-5.75-2.38c-1.41-1.4-2.27-3.3-2.29-5.48l-0.01-0.08c0.01-2.24,0.86-4.16,2.28-5.56
		c1.42-1.4,3.43-2.3,5.87-2.34h0.01c3.39-0.05,6.79-0.07,10.18-0.07c3.43,0,6.86,0.02,10.29,0.07c2.43,0.03,4.46,0.94,5.9,2.34
		C82.36,259.58,83.21,261.49,83.22,263.72z"/>
	<path class="st0" d="M146.02,263.67v0.07c0,2.18-0.84,4.11-2.22,5.53c-1.39,1.41-3.32,2.32-5.61,2.37
		c-3.51,0.07-7.03,0.1-10.55,0.1s-7.06-0.03-10.58-0.1c-2.25-0.05-4.19-0.96-5.59-2.39c-1.39-1.43-2.24-3.37-2.24-5.52v-0.07
		c0.02-2.2,0.87-4.09,2.27-5.49c1.41-1.39,3.39-2.29,5.76-2.36c1.29-0.03,2.58-0.04,3.9-0.04c2.13,0,4.29,0.03,6.47,0.03
		c2.18,0,4.34-0.03,6.47-0.03c1.31,0,2.62,0.01,3.91,0.04c2.35,0.07,4.33,0.98,5.75,2.37C145.15,259.59,146,261.48,146.02,263.67z"
		/>
	<path class="st0" d="M313.49,284.63v0.04c-0.01,2.28-0.86,4.18-2.28,5.59c-1.43,1.39-3.46,2.29-5.97,2.33
		c-3.29,0.04-6.59,0.06-9.9,0.06c-3.42,0-6.85-0.02-10.27-0.06c-2.64-0.03-4.64-0.91-6.06-2.28c-1.4-1.39-2.28-3.35-2.32-5.94
		c-0.05-3.42-0.07-6.86-0.07-10.28c0-3.41,0.02-6.82,0.07-10.23c0.04-2.36,0.93-4.34,2.33-5.77c1.4-1.41,3.3-2.28,5.5-2.31h0.1
		c2.26,0.01,4.15,0.85,5.55,2.27c1.39,1.41,2.3,3.43,2.36,5.92c0.03,1.2,0.04,2.42,0.04,3.68c0,2.04-0.02,4.18-0.02,6.54v2.52h2.52
		c2.28,0,4.39-0.02,6.43-0.02c1.22,0,2.42,0.01,3.6,0.03c2.52,0.05,4.58,0.95,6.04,2.34C312.61,280.48,313.47,282.37,313.49,284.63z
		"/>
</g>
</svg>
