<?xml version="1.0" encoding="utf-8"?>
<!-- Generator: Adobe Illustrator 25.2.3, SVG Export Plug-In . SVG Version: 6.00 Build 0)  -->
<svg version="1.1" id="Layer_1" xmlns="http://www.w3.org/2000/svg" xmlns:xlink="http://www.w3.org/1999/xlink" x="0px" y="0px"
	 viewBox="0 0 360 360" style="enable-background:new 0 0 360 360;" xml:space="preserve">
<style type="text/css">
	.st0{fill:#8CC541;}
</style>
<g>
	<path class="st0" d="M2.39,255.96c0.74-25.34,6.8-49.38,16.38-72.62c1.01-2.46,0.95-4.42-0.04-6.83
		C8.64,152.18,2.39,127,2.85,100.48c0.19-10.89,1.8-21.59,4.85-32.09c0.43-1.47,0.09-3.65-0.75-4.93C1.49,55.28,1.16,45.15,6.38,37
		c5.2-8.13,14.44-11.99,24.28-10.37c1.36,0.22,3.27-0.15,4.29-1.01C51.98,11.33,71.92,4.71,93.78,3.2
		c28.97-2.01,56.38,4.61,82.97,15.46c2.2,0.9,3.96,0.95,6.17,0.03c24.2-10.06,49.21-16.49,75.63-16.14
		c16.23,0.21,31.87,3.22,46.68,10.11c1.06,0.49,2.91,0.32,3.93-0.3c9.51-5.78,20.92-4.97,28.91,2.24c7.87,7.1,9.82,18.18,5.18,28.23
		c-0.55,1.19-0.54,3.19,0.1,4.3c11.93,20.51,15.39,42.79,13.95,66.08c-1.38,22.23-7.25,43.39-15.78,63.87
		c-0.87,2.08-0.86,3.76,0,5.85c10.32,24.87,16.8,50.58,16.01,77.72c-0.54,18.51-4.73,36.08-14.18,52.23c-0.65,1.1-0.65,3.11-0.1,4.3
		c4.68,10.15,2.61,21.38-5.45,28.46c-8.01,7.04-19.23,7.76-28.65,2.05c-1.1-0.67-3.09-0.81-4.25-0.28
		c-21.01,9.61-42.98,11.69-65.69,9c-19.86-2.35-38.94-7.35-57.29-15.32c-1.32-0.57-3.36-0.3-4.77,0.29
		c-24.56,10.34-50.1,16.06-76.78,15.79c-19.84-0.2-38.71-4.7-55.62-15.58c-22.98-14.79-35.43-36.43-39.97-62.91
		C3.51,271.17,3.17,263.53,2.39,255.96z M327.46,180.07c-0.39-0.94-0.74-1.91-1.2-2.82C294.44,113.52,246.71,65.7,182.89,33.98
		c-2.07-1.03-3.72-1.04-5.8,0C113.6,65.77,65.94,113.32,34.31,176.92c-1.03,2.07-1.04,3.66-0.01,5.76
		c31.52,63.82,79.22,111.47,142.83,143.32c2.08,1.04,3.73,1.04,5.8,0.01c63.69-31.7,111.37-79.39,143.18-142.99
		C326.58,182.08,326.97,181.13,327.46,180.07z M165.64,333.42c-30.38-15.8-56.81-35.32-80.31-58.84
		c-23.47-23.49-42.88-49.96-58.26-79.64c-0.49,0.56-0.69,0.69-0.76,0.88c-9.3,25.47-14.51,51.47-10.54,78.75
		c5.14,35.38,28.46,60.75,63.4,68.45C108.71,349.53,136.93,343.58,165.64,333.42z M333.79,194.35
		c-32.44,61.01-78.52,107.09-139.16,139c40.76,15.91,80.44,16.01,105.28,3.05c-3.01-9.97-1.49-19.04,6.52-26.15
		c7.95-7.06,17.12-7.66,26.95-3.29C353.15,269.47,346.9,232.33,333.79,194.35z M194.24,26.52c30.52,15.72,57.06,35.26,80.65,58.85
		c23.58,23.57,43.12,50.1,58.82,80.34c1.78-5.39,3.4-9.94,4.78-14.57c6.85-22.96,9.94-46.21,5.24-70.03
		c-1.96-9.9-5.34-19.27-10.71-28c-9.67,4.35-18.73,3.64-26.59-3.37c-7.98-7.11-9.59-16.16-6.35-26.58
		C264.51,8.04,229.8,13.99,194.24,26.52z M43.78,33.77c6.85,8.83,8.49,18.04,3.18,27.5c-6.11,10.89-15.97,13.9-27.75,11.29
		c-8.48,20.81-3.98,73.01,7.95,92.11c31.77-60.11,77.78-105.96,137.66-138.35c-9.27-3.05-18.37-6.03-27.67-8.14
		c-21.44-4.87-42.97-5.83-64.38,0.37C62.16,21.62,52.44,26.49,43.78,33.77z M322.15,339.6c6.44,0.01,11.75-5.2,11.81-11.59
		c0.06-6.48-5.4-11.99-11.87-11.98c-6.39,0.01-11.65,5.26-11.71,11.69C310.32,334.42,315.45,339.59,322.15,339.6z M38.05,49.73
		c-0.04-6.42-5.26-11.66-11.69-11.73c-6.46-0.07-11.97,5.47-11.88,11.94c0.09,6.48,5.27,11.6,11.75,11.62
		C32.95,61.59,38.1,56.43,38.05,49.73z M310.37,31.96c-0.04,6.61,5.24,11.97,11.78,11.95c6.41-0.02,11.71-5.27,11.77-11.66
		c0.06-6.58-5.22-11.87-11.85-11.88C315.56,20.36,310.41,25.46,310.37,31.96z"/>
	<path class="st0" d="M201.16,238.66c10.13,3.33,20.31,6.65,30.46,10.04c5.34,1.78,8.46,5.22,7.42,9.79
		c-1.34,5.89-3.19,11.87-6.06,17.14c-2.99,5.49-8.75,7.13-14.98,6.64c-6.32-0.5-12.64-0.93-19.14-1.41
		c-2.01,10.56-7.86,17.1-18.84,17.39c-9.18,0.24-14.49-4.95-18.77-17.4c-6.12,0.46-12.32,0.85-18.51,1.43
		c-8.75,0.81-15.26-3.33-18.09-11.71c-0.96-2.84-1.88-5.69-2.78-8.56c-2.04-6.54,0.26-11.08,6.76-13.25
		c9.19-3.06,18.36-6.17,27.61-9.04c2.41-0.75,3.25-1.71,3.08-4.29c-0.82-12.21-1.53-24.44-2.07-36.66
		c-0.11-2.44-1.54-2.75-3.22-3.23c-20.27-5.86-40.53-11.76-60.82-17.56c-13.55-3.87-19.86-12.26-19.63-26.36
		c0.14-8.3,4.9-13.07,13.24-13.08c21.49-0.03,42.97-0.01,64.46-0.01c1.59,0,3.18,0,5.42,0c-1.78-12.74,3.79-23.69,7.2-35.44
		c-6.27,0-12.15,0.02-18.03-0.01c-4.39-0.02-7.12-2.24-7.2-5.78c-0.09-3.63,2.77-6.03,7.29-6.05c6.58-0.02,13.17,0.11,19.75-0.07
		c1.51-0.04,3.33-0.74,4.44-1.76c5.89-5.4,14.13-5.38,20.04,0.09c1.03,0.96,2.73,1.63,4.13,1.67c6.7,0.17,13.4,0.04,20.1,0.08
		c4.35,0.03,7.1,2.35,7.13,5.87c0.03,3.52-2.75,5.91-7.04,5.94c-5.88,0.04-11.76,0.01-18.19,0.01c1.95,6.01,4.18,11.56,5.51,17.32
		c1.34,5.78,1.79,11.76,2.7,18.12c0.91,0,2.26,0,3.61,0c21.49,0,42.97-0.01,64.46,0c9.49,0,14.05,4.56,14.06,13.99
		c0.01,13.09-6.21,21.57-18.84,25.26c-20.36,5.96-40.75,11.83-61.16,17.61c-2.63,0.75-3.61,1.84-3.71,4.69
		c-0.41,11.08-1.18,22.14-1.78,33.21C201.08,234.99,201.16,236.72,201.16,238.66z M191.66,206.2c0.1-0.47,0.13-1.02,0.21-1.76
		c0-24.71,0.02-49.42-0.05-74.14c-0.01-1.93-0.46-3.92-1.05-5.77c-2.63-8.24-5.33-16.46-8.15-24.63c-0.35-1.01-1.57-1.71-2.39-2.56
		c-0.91,0.88-2.27,1.61-2.65,2.68c-2.36,6.63-4.59,13.3-6.67,20.02c-1.05,3.4-2.38,6.92-2.42,10.39
		c-0.19,19.98-0.53,39.98,0.15,59.95c0.83,24.58,2.59,49.13,3.95,73.69c0.28,5.07,0.49,10.15,0.9,15.22
		c0.37,4.51,2.81,7.05,6.51,7.12c3.83,0.07,6.3-2.54,6.76-7.25c0.17-1.72,0.18-3.46,0.28-5.19
		C188.33,250.8,190.38,229.38,191.66,206.2z M203.99,183.56c0.78-0.06,1.25-0.02,1.68-0.15c20.16-5.82,40.35-11.57,60.47-17.54
		c6.7-1.99,9.64-7.81,8.15-15.27c-23.34,0-46.72,0-70.3,0C203.99,161.65,203.99,172.46,203.99,183.56z M156.3,150.59
		c-23.57,0-46.95,0-70.28,0c-1.69,7.56,1.58,13.4,8.7,15.48c13.71,4.02,27.46,7.93,41.19,11.9c6.74,1.94,13.47,3.89,20.39,5.89
		C156.3,172.58,156.3,161.67,156.3,150.59z M199.24,268.92c7.31,0.54,14.18,1.16,21.07,1.43c1.16,0.05,2.93-1.19,3.46-2.29
		c1.26-2.62,1.96-5.52,2.94-8.48c-9.01-2.97-17.58-5.79-26.49-8.72C199.88,257.04,199.57,262.66,199.24,268.92z M133.67,259.58
		c0.17,0.75,0.23,1.19,0.36,1.61c3.48,10.93,2.52,9.44,12.75,8.83c4.66-0.28,9.31-0.8,14.21-1.23c-0.34-6.18-0.65-11.87-0.98-17.92
		C150.96,253.86,142.37,256.7,133.67,259.58z"/>
</g>
</svg>
