<?xml version="1.0" encoding="utf-8"?>
<!-- Generator: Adobe Illustrator 25.2.3, SVG Export Plug-In . SVG Version: 6.00 Build 0)  -->
<svg version="1.1" id="Layer_1" xmlns="http://www.w3.org/2000/svg" xmlns:xlink="http://www.w3.org/1999/xlink" x="0px" y="0px"
	 viewBox="0 0 360 360" style="enable-background:new 0 0 360 360;" xml:space="preserve">
<style type="text/css">
	.st0{fill:#8CC541;}
</style>
<g>
	<path class="st0" d="M210.74,175.52c-1.15,5.56-2.38,11.11-3.36,16.71c-0.17,0.95,0.43,2.37,1.16,3.09
		c12.78,12.82,22.9,27.47,30.51,43.87c6.51,14.03,10.65,28.75,12.7,44.07c0.06,0.42,0.17,0.83,0.35,1.69
		c14.96-10.22,26.91-22.82,36.45-38.03c-6.73-10.04-14.74-18.92-23.82-26.86c-8.74-7.64-18.29-14.09-28.66-19.31
		c-0.82-0.41-1.67-0.82-2.42-1.34c-2.64-1.84-3.42-4.92-1.99-7.62c1.42-2.69,4.48-3.98,7.36-2.71c3.16,1.39,6.21,3.07,9.21,4.78
		c17.38,9.91,32.18,22.82,44.5,38.58c0.62,0.8,1.3,1.56,2.56,3.06c2.49-6.79,4.77-12.99,7.03-19.2c0.4-1.08,0.62-2.24,1.14-3.26
		c1.33-2.63,4.34-3.83,7.05-2.94c2.83,0.93,4.7,3.79,3.79,6.88c-1.69,5.74-3.35,11.57-5.79,17.01
		c-20.57,45.75-55.37,74.18-104.81,83.11c-74.41,13.44-146.79-37.47-160.1-111.74c-5.73-31.95-1.38-62.51,14.27-90.91
		c22.17-40.26,56.24-64.73,101.75-71.65c75.33-11.47,144.31,38.76,157.38,113.89c1.24,7.14,1.75,14.43,2.28,21.68
		c0.47,6.44-3.76,9.25-9.54,6.43c-15.08-7.34-30.88-12.2-47.57-14.06c-17.43-1.94-34.59-0.49-51.51,4.06
		c-0.32,0.09-0.59,0.33-0.89,0.51C210.08,175.36,210.41,175.44,210.74,175.52z M126.11,295c-0.28-0.21-0.04,0.04,0.24,0.18
		c14.78,7,30.33,10.9,46.66,11.9c2.98,0.18,4.19-0.87,5.31-3.44c13.86-31.75,15.81-64.21,6.12-97.42
		c-1.79-6.12-1.24-7.43,4.33-10.56c7.52-4.23,10.95-12.64,8.44-20.71c-2.28-7.31-8.41-12.08-16.13-12.55
		c-7.21-0.44-14.14,3.93-17.06,10.76c-2.96,6.92-1.27,14.62,4.38,19.97c4.44,4.2,4.51,6.93,0.32,11.37
		c-20.76,21.99-45.8,36.69-75.18,43.89c-5.85,1.43-11.82,2.4-18.04,3.64c10.27,14.76,22.75,26.71,37.83,36.09
		c1.88-1.36,3.68-2.61,5.42-3.93c19.23-14.64,33.76-33,43.61-55.08c1.82-4.08,4.95-5.49,8.27-3.97c3.33,1.52,4.33,4.81,2.55,8.82
		c-5.48,12.3-12.04,24.03-20.96,34.11C143.98,277.36,134.94,285.95,126.11,295z M203.37,160.9c0.89,3.21,2.79,2.85,4.99,2.28
		c32.48-8.4,64.3-6.29,95.48,6.02c1,0.39,2.02,0.74,3.09,1.13c0.09-0.59,0.18-0.82,0.16-1.04c-4.29-41.17-23.75-73.18-58.06-96.26
		c-1.75-1.18-2.89-1.04-4.55,0.16c-20.53,14.78-36.14,33.61-46.33,56.76c-3.13,7.12-5.48,14.58-8.14,21.74
		c3.68,2.08,3.69,2.1,5.9-0.11c10.63-10.6,22.46-19.69,35.91-26.32c8.87-4.37,18.23-7.75,27.46-11.33c3.29-1.28,6.55,0.57,7.55,3.62
		c1.03,3.12-0.51,6.19-3.81,7.53c-0.96,0.39-1.98,0.63-2.97,0.95C238.35,133.07,219.48,144.72,203.37,160.9z M157.26,199.25
		c-0.86-3.13-2.77-2.82-5.16-2.19c-26.15,6.82-52.29,6.65-78.38-0.38c-4.27-1.15-6.37-4-5.5-7.4c0.93-3.65,4.14-5.27,8.55-4.06
		c15.64,4.28,31.56,5.94,47.68,4.47c8.89-0.81,17.7-2.58,26.41-3.9c-0.06-4.28-0.06-4.29-3.09-5.13
		c-30.82-8.57-56.57-25.03-77.17-49.53c-1.61-1.91-3.19-3.85-4.83-5.84c-0.34,0.46-0.51,0.62-0.6,0.82
		c-17,37.86-16.15,75.37,2.17,112.57c0.98,1.98,2.41,1.91,3.99,1.57c10.91-2.38,22.05-4.04,32.65-7.4
		C124.57,226.29,142.12,214.51,157.26,199.25z M161.13,157.07c3.21-0.93,2.85-2.84,2.27-5.03c-6.71-25.29-6.73-50.66-0.31-75.97
		c1.94-7.65,4.74-15.07,7.19-22.75c-17.24,1.34-33.51,6-48.76,14.12c-0.83,0.44-1.45,2.23-1.34,3.31c0.47,4.58,1.05,9.17,1.95,13.69
		C127.74,112.61,140.81,136.79,161.13,157.07z M190.37,306.7c0.24,0.03,0.58,0.15,0.92,0.11c16.38-1.55,31.93-5.93,46.64-13.35
		c2.26-1.14,2.86-2.37,2.58-4.78c-1.53-13.26-4.57-26.12-9.58-38.51c-7.24-17.91-17.82-33.55-31.43-47.07
		c-3.16,0.88-2.84,2.81-2.22,5.18c6.75,25.8,6.72,51.62-0.18,77.37C195.19,292.76,192.63,299.68,190.37,306.7z M152.27,169.56
		c2.24-2.35,1.01-3.65-0.52-5.19c-18.84-19.03-31.88-41.45-38.76-67.35c-1.88-7.05-3.13-14.27-4.68-21.42
		c-0.26,0.07-0.51,0.08-0.69,0.2c-13.94,9.68-25.45,21.71-34.51,36.05c-0.5,0.8-0.25,2.69,0.39,3.48
		c4.46,5.6,8.79,11.34,13.74,16.48C105.32,150.55,127.14,162.94,152.27,169.56z M234.97,65.27c-15.41-7.28-31.26-11.34-47.97-12.18
		c-2.37-0.12-3.45,0.62-4.4,2.72c-7.54,16.86-11.74,34.48-12.36,52.93c-0.45,13.47,0.99,26.75,4.52,39.77
		c0.24,0.87,1.24,1.53,1.88,2.29c0.77-0.7,1.64-1.31,2.27-2.12c0.39-0.51,0.43-1.3,0.62-1.97c8.3-29.62,24.04-54.52,47.28-74.68
		C229.41,69.79,232.1,67.65,234.97,65.27z"/>
	<path class="st0" d="M358.21,180.2C357.8,265.64,297.28,339.02,213,354.58c-99.59,18.38-189.01-48-206.94-140.37
		c-18.05-92.99,39.5-183.37,131.63-206.5c2.96-0.74,5.76-0.96,7.86,1.8c2.73,3.58,0.74,8.02-4.1,9.54
		c-8.14,2.54-16.54,4.52-24.32,7.91C60.71,51.6,26.55,94.23,16.76,155.07c-7.73,48.06,4.58,91.57,35.15,129.38
		c26.65,32.96,61.31,53.21,103.33,59.22c57.6,8.25,106.86-9.34,146.8-51.52c24.46-25.84,38.39-57.01,42.74-92.41
		c8.92-72.58-31.6-142.67-99.12-171.87c-20.06-8.68-41.07-13.08-62.93-13.46c-0.69-0.01-1.39,0-2.08-0.03
		c-3.81-0.2-6.27-2.6-6.21-6.02c0.07-3.42,2.57-5.92,6.44-5.74c7.84,0.35,15.74,0.5,23.49,1.6c45.38,6.48,82.98,27.31,112.43,62.4
		c22.48,26.78,35.72,57.74,39.74,92.52C357.36,166.13,357.67,173.18,358.21,180.2z"/>
</g>
</svg>
